<svg xmlns="http://www.w3.org/2000/svg" xmlns:xlink="http://www.w3.org/1999/xlink" width="256" zoomAndPan="magnify" viewBox="0 0 192 191.999996" height="256" preserveAspectRatio="xMidYMid meet" version="1.0"><defs><g/><clipPath id="85cbd997e1"><path d="M 21.773438 3.421875 L 170.007812 3.421875 L 170.007812 189.773438 L 21.773438 189.773438 Z M 21.773438 3.421875 " clip-rule="nonzero"/></clipPath></defs><g fill="#000000" fill-opacity="1"><g transform="translate(28.686741, 173.551075)"><g><path d="M 8.15625 0 L 8.15625 -9.015625 L 0 -22.453125 L 2.34375 -22.453125 L 9.1875 -11.046875 L 16.03125 -22.453125 L 18.375 -22.453125 L 10.234375 -9.015625 L 10.234375 0 Z M 8.15625 0 "/></g></g></g><g fill="#000000" fill-opacity="1"><g transform="translate(50.098968, 173.551075)"><g><path d="M 8.1875 -22.453125 L 10.921875 -22.453125 C 12.253906 -18.785156 13.582031 -15.050781 14.90625 -11.25 C 16.238281 -7.445312 17.539062 -3.695312 18.8125 0 L 16.78125 0 L 14.609375 -6.203125 L 4.5 -6.203125 L 2.390625 0 L 0.21875 0 Z M 5.15625 -8.109375 L 13.953125 -8.109375 L 9.53125 -20.625 Z M 5.15625 -8.109375 "/></g></g></g><g fill="#000000" fill-opacity="1"><g transform="translate(72.161333, 173.551075)"><g><path d="M 2.390625 -22.453125 L 10.921875 -22.453125 C 12.597656 -22.453125 13.921875 -22.289062 14.890625 -21.96875 C 15.859375 -21.65625 16.550781 -21.054688 16.96875 -20.171875 C 17.382812 -19.296875 17.59375 -17.972656 17.59375 -16.203125 L 17.59375 -16 C 17.59375 -14.226562 17.382812 -12.890625 16.96875 -11.984375 C 16.550781 -11.078125 15.859375 -10.46875 14.890625 -10.15625 C 13.921875 -9.851562 12.597656 -9.703125 10.921875 -9.703125 L 4.421875 -9.703125 L 4.421875 0 L 2.390625 0 Z M 4.421875 -20.59375 L 4.421875 -11.609375 L 10.921875 -11.609375 C 12.140625 -11.609375 13.085938 -11.703125 13.765625 -11.890625 C 14.441406 -12.078125 14.910156 -12.484375 15.171875 -13.109375 C 15.429688 -13.734375 15.5625 -14.695312 15.5625 -16 L 15.5625 -16.203125 C 15.5625 -17.503906 15.429688 -18.46875 15.171875 -19.09375 C 14.910156 -19.71875 14.441406 -20.125 13.765625 -20.3125 C 13.085938 -20.5 12.140625 -20.59375 10.921875 -20.59375 Z M 4.421875 -20.59375 "/></g></g></g><g fill="#000000" fill-opacity="1"><g transform="translate(93.660201, 173.551075)"><g><path d="M 2.390625 -22.453125 L 11.015625 -22.453125 C 12.679688 -22.453125 14 -22.289062 14.96875 -21.96875 C 15.9375 -21.65625 16.640625 -21.054688 17.078125 -20.171875 C 17.515625 -19.296875 17.734375 -17.972656 17.734375 -16.203125 L 17.734375 -16 C 17.734375 -14.320312 17.535156 -13.023438 17.140625 -12.109375 C 16.753906 -11.203125 16.054688 -10.546875 15.046875 -10.140625 C 15.617188 -8.640625 16.242188 -7.054688 16.921875 -5.390625 C 17.597656 -3.734375 18.328125 -1.9375 19.109375 0 L 16.8125 0 L 12.953125 -9.75 L 4.46875 -9.75 L 4.46875 0 L 2.390625 0 Z M 4.46875 -20.59375 L 4.46875 -11.65625 L 11.015625 -11.65625 C 12.222656 -11.65625 13.164062 -11.738281 13.84375 -11.90625 C 14.519531 -12.082031 14.988281 -12.484375 15.25 -13.109375 C 15.507812 -13.734375 15.640625 -14.695312 15.640625 -16 L 15.640625 -16.203125 C 15.640625 -17.503906 15.507812 -18.46875 15.25 -19.09375 C 14.988281 -19.71875 14.519531 -20.125 13.84375 -20.3125 C 13.164062 -20.5 12.222656 -20.59375 11.015625 -20.59375 Z M 4.46875 -20.59375 "/></g></g></g><g fill="#000000" fill-opacity="1"><g transform="translate(115.809262, 173.551075)"><g><path d="M 8.1875 -22.453125 L 10.921875 -22.453125 C 12.253906 -18.785156 13.582031 -15.050781 14.90625 -11.25 C 16.238281 -7.445312 17.539062 -3.695312 18.8125 0 L 16.78125 0 L 14.609375 -6.203125 L 4.5 -6.203125 L 2.390625 0 L 0.21875 0 Z M 5.15625 -8.109375 L 13.953125 -8.109375 L 9.53125 -20.625 Z M 5.15625 -8.109375 "/></g></g></g><g fill="#000000" fill-opacity="1"><g transform="translate(137.871627, 173.551075)"><g><path d="M 16.171875 0 L 8.796875 -10.96875 L 4.46875 -6.203125 L 4.46875 0 L 2.390625 0 L 2.390625 -22.453125 L 4.46875 -22.453125 L 4.46875 -9.015625 L 15.953125 -22.453125 L 18.546875 -22.453125 L 10.140625 -12.484375 L 18.6875 0 Z M 16.171875 0 "/></g></g></g><g clip-path="url(#85cbd997e1)"><path fill="#000000" d="M 124.84375 9.992188 C 124.835938 9.851562 124.671875 9.886719 124.707031 10.128906 L 124.707031 49.664062 L 163.925781 49.664062 C 151.429688 36.441406 137.773438 23.222656 124.84375 9.992188 Z M 25.136719 7.3125 L 25.136719 186.238281 L 166.585938 186.238281 L 166.585938 53.019531 C 153.667969 53.015625 140.132812 53.015625 127.097656 53.015625 C 125.480469 53.015625 122.460938 53.296875 121.785156 52.617188 C 121.085938 51.914062 121.386719 48.808594 121.386719 46.851562 C 121.382812 33.640625 121.386719 19.355469 121.386719 6.914062 C 89.347656 6.914062 57.308594 6.914062 25.265625 6.914062 C 25.113281 6.9375 25.125 7.125 25.136719 7.316406 Z M 22.746094 3.5625 L 115.804688 3.5625 C 117.902344 3.5625 120.179688 3.25 121.917969 3.5625 C 122.996094 3.753906 124.199219 5.101562 125.375 6.109375 C 132.769531 12.417969 139.816406 20.265625 146.382812 26.878906 C 154.429688 35 162.035156 42.9375 169.914062 51.140625 C 169.914062 94.152344 169.90625 137.328125 169.914062 181.007812 C 169.914062 183.597656 170.308594 188.378906 169.511719 189.183594 C 168.628906 190.070312 163.160156 189.582031 160.601562 189.582031 C 117.027344 189.582031 74.644531 189.589844 31.253906 189.582031 C 28.859375 189.582031 23.488281 190.164062 22.347656 189.316406 C 21.613281 188.769531 21.816406 185.835938 21.816406 183.957031 C 21.8125 125.59375 21.820312 67.792969 21.816406 9.328125 C 21.816406 7.828125 21.59375 4.367188 22.214844 3.964844 C 22.375 3.863281 22.390625 3.800781 22.746094 3.5625 " fill-opacity="1" fill-rule="evenodd"/></g><g fill="#000000" fill-opacity="1"><g transform="translate(37.272558, 124.789092)"><g><path d="M 26.453125 0.546875 C 23.171875 0.546875 20.0625 -0.0703125 17.125 -1.3125 C 14.195312 -2.5625 11.601562 -4.3125 9.34375 -6.5625 C 7.09375 -8.78125 5.335938 -11.363281 4.078125 -14.3125 C 2.816406 -17.269531 2.1875 -20.390625 2.1875 -23.671875 C 2.1875 -28.742188 3.613281 -33.332031 6.46875 -37.4375 L 20.640625 -62.25 C 21.296875 -63.375 22.15625 -64.234375 23.21875 -64.828125 C 24.28125 -65.429688 25.425781 -65.734375 26.65625 -65.734375 C 28.539062 -65.734375 30.128906 -65.050781 31.421875 -63.6875 C 32.578125 -62.46875 33.15625 -61.007812 33.15625 -59.3125 C 33.15625 -58.019531 32.8125 -56.796875 32.125 -55.640625 L 27.34375 -47.9375 C 30.5625 -47.800781 33.59375 -47.085938 36.4375 -45.796875 C 39.289062 -44.503906 41.796875 -42.742188 43.953125 -40.515625 C 46.078125 -38.296875 47.734375 -35.734375 48.921875 -32.828125 C 50.117188 -29.929688 50.71875 -26.878906 50.71875 -23.671875 C 50.71875 -20.390625 50.09375 -17.28125 48.84375 -14.34375 C 47.601562 -11.40625 45.859375 -8.8125 43.609375 -6.5625 C 41.390625 -4.34375 38.796875 -2.601562 35.828125 -1.34375 C 32.859375 -0.0820312 29.734375 0.546875 26.453125 0.546875 Z M 26.453125 -12.734375 C 27.941406 -12.734375 29.363281 -13.015625 30.71875 -13.578125 C 32.082031 -14.140625 33.257812 -14.914062 34.25 -15.90625 C 35.28125 -16.9375 36.078125 -18.113281 36.640625 -19.4375 C 37.203125 -20.757812 37.484375 -22.171875 37.484375 -23.671875 C 37.484375 -25.160156 37.203125 -26.566406 36.640625 -27.890625 C 36.078125 -29.210938 35.28125 -30.390625 34.25 -31.421875 C 33.257812 -32.421875 32.082031 -33.203125 30.71875 -33.765625 C 29.363281 -34.328125 27.941406 -34.609375 26.453125 -34.609375 C 24.992188 -34.609375 23.59375 -34.328125 22.25 -33.765625 C 20.90625 -33.203125 19.738281 -32.421875 18.75 -31.421875 C 17.71875 -30.390625 16.910156 -29.210938 16.328125 -27.890625 C 15.753906 -26.566406 15.46875 -25.160156 15.46875 -23.671875 C 15.46875 -22.171875 15.753906 -20.757812 16.328125 -19.4375 C 16.910156 -18.113281 17.71875 -16.9375 18.75 -15.90625 C 19.738281 -14.914062 20.90625 -14.140625 22.25 -13.578125 C 23.59375 -13.015625 24.992188 -12.734375 26.453125 -12.734375 Z M 26.453125 -12.734375 "/></g></g></g><g fill="#000000" fill-opacity="1"><g transform="translate(97.284329, 124.789092)"><g><path d="M 28.984375 0.546875 C 25.671875 0.546875 22.503906 -0.0625 19.484375 -1.28125 C 16.472656 -2.507812 13.820312 -4.238281 11.53125 -6.46875 C 9.21875 -8.71875 7.410156 -11.398438 6.109375 -14.515625 C 4.816406 -17.628906 4.171875 -21.03125 4.171875 -24.71875 L 4.171875 -40.515625 C 4.171875 -44.203125 4.816406 -47.601562 6.109375 -50.71875 C 7.410156 -53.832031 9.21875 -56.53125 11.53125 -58.8125 C 13.820312 -61.039062 16.472656 -62.757812 19.484375 -63.96875 C 22.503906 -65.175781 25.671875 -65.78125 28.984375 -65.78125 C 32.296875 -65.78125 35.453125 -65.175781 38.453125 -63.96875 C 41.453125 -62.757812 44.097656 -61.039062 46.390625 -58.8125 C 48.710938 -56.53125 50.519531 -53.832031 51.8125 -50.71875 C 53.101562 -47.601562 53.75 -44.203125 53.75 -40.515625 L 53.75 -24.71875 C 53.75 -21.03125 53.101562 -17.628906 51.8125 -14.515625 C 50.519531 -11.398438 48.710938 -8.71875 46.390625 -6.46875 C 44.097656 -4.238281 41.453125 -2.507812 38.453125 -1.28125 C 35.453125 -0.0625 32.296875 0.546875 28.984375 0.546875 Z M 28.984375 -12.828125 C 30.515625 -12.828125 31.957031 -13.054688 33.3125 -13.515625 C 34.664062 -13.984375 35.859375 -14.695312 36.890625 -15.65625 C 39.242188 -17.8125 40.421875 -20.796875 40.421875 -24.609375 L 40.421875 -40.625 C 40.421875 -42.582031 40.113281 -44.3125 39.5 -45.8125 C 38.882812 -47.320312 38.015625 -48.578125 36.890625 -49.578125 C 35.859375 -50.535156 34.664062 -51.242188 33.3125 -51.703125 C 31.957031 -52.171875 30.515625 -52.40625 28.984375 -52.40625 C 27.460938 -52.40625 26.015625 -52.164062 24.640625 -51.6875 C 23.265625 -51.207031 22.0625 -50.503906 21.03125 -49.578125 C 19.90625 -48.578125 19.035156 -47.320312 18.421875 -45.8125 C 17.804688 -44.3125 17.5 -42.582031 17.5 -40.625 L 17.5 -24.609375 C 17.5 -20.796875 18.675781 -17.8125 21.03125 -15.65625 C 22.0625 -14.726562 23.265625 -14.023438 24.640625 -13.546875 C 26.015625 -13.066406 27.460938 -12.828125 28.984375 -12.828125 Z M 28.984375 -12.828125 "/></g></g></g></svg>