<svg xmlns="http://www.w3.org/2000/svg" xmlns:xlink="http://www.w3.org/1999/xlink" width="256" zoomAndPan="magnify" viewBox="0 0 192 191.999996" height="256" preserveAspectRatio="xMidYMid meet" version="1.0"><defs><g/><clipPath id="3a7ebb5561"><path d="M 23.601562 5.703125 L 168.183594 5.703125 L 168.183594 187.464844 L 23.601562 187.464844 Z M 23.601562 5.703125 " clip-rule="nonzero"/></clipPath></defs><g fill="#000000" fill-opacity="1"><g transform="translate(39.307889, 171.639484)"><g><path d="M 2.328125 0 L 2.328125 -21.90625 L 10.828125 -21.90625 C 12.460938 -21.90625 13.757812 -21.804688 14.71875 -21.609375 C 15.675781 -21.410156 16.359375 -20.921875 16.765625 -20.140625 C 17.171875 -19.367188 17.375 -18.125 17.375 -16.40625 L 17.375 -15.859375 C 17.375 -14.734375 17.222656 -13.800781 16.921875 -13.0625 C 16.628906 -12.332031 16.035156 -11.695312 15.140625 -11.15625 C 16.035156 -10.570312 16.628906 -9.894531 16.921875 -9.125 C 17.222656 -8.363281 17.375 -7.421875 17.375 -6.296875 L 17.375 -5.578125 C 17.375 -3.859375 17.171875 -2.601562 16.765625 -1.8125 C 16.359375 -1.03125 15.675781 -0.53125 14.71875 -0.3125 C 13.757812 -0.101562 12.460938 0 10.828125 0 Z M 4.3125 -12.140625 L 10.828125 -12.140625 C 12.003906 -12.140625 12.925781 -12.1875 13.59375 -12.28125 C 14.257812 -12.382812 14.722656 -12.695312 14.984375 -13.21875 C 15.253906 -13.738281 15.390625 -14.617188 15.390625 -15.859375 L 15.390625 -16.40625 C 15.390625 -17.613281 15.253906 -18.472656 14.984375 -18.984375 C 14.722656 -19.492188 14.257812 -19.800781 13.59375 -19.90625 C 12.925781 -20.019531 12.003906 -20.078125 10.828125 -20.078125 L 4.3125 -20.078125 Z M 4.3125 -1.78125 L 10.828125 -1.78125 C 12.003906 -1.78125 12.925781 -1.832031 13.59375 -1.9375 C 14.257812 -2.050781 14.722656 -2.367188 14.984375 -2.890625 C 15.253906 -3.410156 15.390625 -4.304688 15.390625 -5.578125 L 15.390625 -6.296875 C 15.390625 -7.421875 15.28125 -8.265625 15.0625 -8.828125 C 14.851562 -9.398438 14.488281 -9.773438 13.96875 -9.953125 C 13.445312 -10.140625 12.722656 -10.234375 11.796875 -10.234375 L 4.3125 -10.234375 Z M 4.3125 -1.78125 "/></g></g></g><g fill="#000000" fill-opacity="1"><g transform="translate(61.122366, 171.639484)"><g><path d="M 9.9375 0.21875 C 7.875 0.21875 6.238281 -0.015625 5.03125 -0.484375 C 3.820312 -0.953125 2.960938 -1.769531 2.453125 -2.9375 C 1.941406 -4.101562 1.6875 -5.757812 1.6875 -7.90625 L 1.6875 -13.875 C 1.6875 -16.039062 1.941406 -17.710938 2.453125 -18.890625 C 2.960938 -20.078125 3.820312 -20.894531 5.03125 -21.34375 C 6.238281 -21.800781 7.875 -22.03125 9.9375 -22.03125 C 12.019531 -22.03125 13.648438 -21.800781 14.828125 -21.34375 C 16.015625 -20.894531 16.863281 -20.078125 17.375 -18.890625 C 17.882812 -17.710938 18.140625 -16.039062 18.140625 -13.875 L 18.140625 -7.90625 C 18.140625 -5.757812 17.882812 -4.101562 17.375 -2.9375 C 16.863281 -1.769531 16.015625 -0.953125 14.828125 -0.484375 C 13.648438 -0.015625 12.019531 0.21875 9.9375 0.21875 Z M 9.9375 -20.203125 C 8.4375 -20.203125 7.226562 -20.0625 6.3125 -19.78125 C 5.40625 -19.5 4.738281 -18.914062 4.3125 -18.03125 C 3.882812 -17.144531 3.671875 -15.757812 3.671875 -13.875 L 3.671875 -7.90625 C 3.671875 -6.019531 3.890625 -4.625 4.328125 -3.71875 C 4.765625 -2.820312 5.441406 -2.238281 6.359375 -1.96875 C 7.273438 -1.695312 8.453125 -1.5625 9.890625 -1.5625 C 11.390625 -1.5625 12.597656 -1.695312 13.515625 -1.96875 C 14.429688 -2.238281 15.097656 -2.820312 15.515625 -3.71875 C 15.941406 -4.625 16.15625 -6.019531 16.15625 -7.90625 L 16.15625 -13.875 C 16.15625 -15.757812 15.941406 -17.144531 15.515625 -18.03125 C 15.097656 -18.914062 14.4375 -19.5 13.53125 -19.78125 C 12.625 -20.0625 11.425781 -20.203125 9.9375 -20.203125 Z M 9.9375 -20.203125 "/></g></g></g><g fill="#000000" fill-opacity="1"><g transform="translate(83.909191, 171.639484)"><g><path d="M 7.953125 0 L 7.953125 -8.796875 L 0 -21.90625 L 2.28125 -21.90625 L 8.96875 -10.78125 L 15.640625 -21.90625 L 17.921875 -21.90625 L 9.984375 -8.796875 L 9.984375 0 Z M 7.953125 0 "/></g></g></g><g fill="#000000" fill-opacity="1"><g transform="translate(104.793626, 171.639484)"><g><path d="M 10.140625 0.21875 C 8.054688 0.21875 6.421875 -0.015625 5.234375 -0.484375 C 4.054688 -0.953125 3.226562 -1.769531 2.75 -2.9375 C 2.269531 -4.101562 2.03125 -5.757812 2.03125 -7.90625 L 2.03125 -21.90625 L 4.0625 -21.90625 L 4.0625 -7.90625 C 4.0625 -6.019531 4.265625 -4.625 4.671875 -3.71875 C 5.078125 -2.820312 5.722656 -2.238281 6.609375 -1.96875 C 7.503906 -1.695312 8.679688 -1.5625 10.140625 -1.5625 C 11.609375 -1.5625 12.785156 -1.695312 13.671875 -1.96875 C 14.566406 -2.238281 15.21875 -2.820312 15.625 -3.71875 C 16.03125 -4.625 16.234375 -6.019531 16.234375 -7.90625 L 16.234375 -21.90625 L 18.265625 -21.90625 L 18.265625 -7.90625 C 18.265625 -5.757812 18.023438 -4.101562 17.546875 -2.9375 C 17.066406 -1.769531 16.234375 -0.953125 15.046875 -0.484375 C 13.867188 -0.015625 12.234375 0.21875 10.140625 0.21875 Z M 10.140625 0.21875 "/></g></g></g><g fill="#000000" fill-opacity="1"><g transform="translate(128.045499, 171.639484)"><g><path d="M 16.40625 -20.078125 L 9.59375 -20.078125 L 9.59375 0 L 7.609375 0 L 7.609375 -20.078125 L 0.84375 -20.078125 L 0.84375 -21.90625 L 16.40625 -21.90625 Z M 16.40625 -20.078125 "/></g></g></g><g clip-path="url(#3a7ebb5561)"><path fill="#000000" d="M 124.132812 12.113281 C 124.125 11.976562 123.964844 12.011719 124 12.246094 L 124 50.808594 L 162.25 50.808594 C 150.0625 37.910156 136.742188 25.015625 124.132812 12.113281 Z M 26.882812 9.5 L 26.882812 184.011719 L 164.84375 184.011719 L 164.84375 54.078125 C 152.246094 54.078125 139.042969 54.078125 126.332031 54.078125 C 124.753906 54.078125 121.808594 54.351562 121.148438 53.683594 C 120.46875 53 120.761719 49.972656 120.761719 48.0625 C 120.757812 35.175781 120.761719 21.242188 120.761719 9.109375 C 89.511719 9.109375 58.261719 9.109375 27.011719 9.109375 C 26.859375 9.132812 26.871094 9.316406 26.882812 9.5 Z M 24.550781 5.839844 L 115.316406 5.839844 C 117.363281 5.839844 119.585938 5.535156 121.277344 5.839844 C 122.332031 6.027344 123.503906 7.34375 124.652344 8.324219 C 131.863281 14.480469 138.738281 22.132812 145.140625 28.585938 C 152.988281 36.503906 160.410156 44.246094 168.089844 52.246094 C 168.089844 94.199219 168.085938 136.3125 168.089844 178.914062 C 168.089844 181.4375 168.480469 186.105469 167.699219 186.886719 C 166.839844 187.75 161.503906 187.277344 159.011719 187.277344 C 116.507812 187.277344 75.171875 187.28125 32.851562 187.277344 C 30.515625 187.277344 25.273438 187.839844 24.164062 187.015625 C 23.445312 186.484375 23.644531 183.621094 23.644531 181.789062 C 23.640625 124.863281 23.648438 68.488281 23.644531 11.464844 C 23.644531 10.003906 23.429688 6.628906 24.03125 6.234375 C 24.1875 6.132812 24.207031 6.074219 24.550781 5.839844 " fill-opacity="1" fill-rule="evenodd"/></g><g fill="#000000" fill-opacity="1"><g transform="translate(38.800592, 124.079435)"><g><path d="M 12.609375 0.484375 C 10.796875 0.484375 9.226562 -0.144531 7.90625 -1.40625 C 6.613281 -2.601562 5.96875 -4.15625 5.96875 -6.0625 L 5.96875 -38.703125 C 5.96875 -42.359375 6.492188 -45.738281 7.546875 -48.84375 C 8.597656 -51.945312 10.125 -54.628906 12.125 -56.890625 C 14.164062 -59.179688 16.640625 -60.945312 19.546875 -62.1875 C 22.453125 -63.4375 25.71875 -64.0625 29.34375 -64.0625 C 33 -64.0625 36.304688 -63.457031 39.265625 -62.25 C 42.222656 -61.039062 44.75 -59.285156 46.84375 -56.984375 C 48.914062 -54.722656 50.5 -51.96875 51.59375 -48.71875 C 52.695312 -45.46875 53.25 -41.851562 53.25 -37.875 L 53.25 -6.0625 C 53.25 -4.25 52.601562 -2.695312 51.3125 -1.40625 C 50.695312 -0.820312 49.976562 -0.359375 49.15625 -0.015625 C 48.332031 0.316406 47.484375 0.484375 46.609375 0.484375 C 45.671875 0.484375 44.796875 0.316406 43.984375 -0.015625 C 43.179688 -0.359375 42.488281 -0.820312 41.90625 -1.40625 C 40.582031 -2.664062 39.921875 -4.21875 39.921875 -6.0625 L 39.921875 -16.203125 L 19.25 -16.203125 L 19.25 -6.0625 C 19.25 -4.15625 18.601562 -2.601562 17.3125 -1.40625 C 16.695312 -0.820312 15.976562 -0.359375 15.15625 -0.015625 C 14.332031 0.316406 13.484375 0.484375 12.609375 0.484375 Z M 19.25 -29.4375 L 39.921875 -29.4375 L 39.921875 -37.875 C 39.921875 -42.019531 39.046875 -45.210938 37.296875 -47.453125 C 35.546875 -49.703125 32.992188 -50.828125 29.640625 -50.828125 C 26.242188 -50.828125 23.660156 -49.785156 21.890625 -47.703125 C 20.128906 -45.617188 19.25 -42.328125 19.25 -37.828125 Z M 19.25 -29.4375 "/></g></g></g><g fill="#000000" fill-opacity="1"><g transform="translate(104.943878, 124.079435)"><g><path d="M 22.890625 0.53125 C 18.617188 0.53125 14.753906 -0.582031 11.296875 -2.8125 C 7.972656 -4.914062 5.304688 -7.828125 3.296875 -11.546875 C 2.554688 -12.773438 2.1875 -14.035156 2.1875 -15.328125 C 2.1875 -16.878906 2.75 -18.269531 3.875 -19.5 C 5.132812 -20.757812 6.6875 -21.390625 8.53125 -21.390625 C 9.726562 -21.390625 10.851562 -21.097656 11.90625 -20.515625 C 12.957031 -19.929688 13.804688 -19.109375 14.453125 -18.046875 L 14.75 -17.40625 C 16.59375 -14.007812 19.304688 -12.3125 22.890625 -12.3125 C 26.054688 -12.3125 28.484375 -13.039062 30.171875 -14.5 C 32.140625 -16.144531 33.125 -18.679688 33.125 -22.109375 C 33.125 -24.085938 32.507812 -25.738281 31.28125 -27.0625 C 30.21875 -28.226562 28.957031 -29.101562 27.5 -29.6875 C 26.269531 -30.195312 25.234375 -30.453125 24.390625 -30.453125 L 10.140625 -30.453125 C 10.109375 -30.421875 10.054688 -30.40625 9.984375 -30.40625 C 7.953125 -30.40625 6.320312 -31.003906 5.09375 -32.203125 C 3.800781 -33.398438 3.15625 -34.9375 3.15625 -36.8125 L 3 -57.28125 C 3 -59.09375 3.695312 -60.597656 5.09375 -61.796875 C 6.476562 -62.984375 8.078125 -63.578125 9.890625 -63.578125 L 35.5 -63.578125 C 36.375 -63.578125 37.195312 -63.40625 37.96875 -63.0625 C 38.75 -62.726562 39.445312 -62.253906 40.0625 -61.640625 C 40.644531 -61.023438 41.101562 -60.304688 41.4375 -59.484375 C 41.78125 -58.660156 41.953125 -57.8125 41.953125 -56.9375 C 41.953125 -55.1875 41.320312 -53.703125 40.0625 -52.484375 C 38.832031 -51.253906 37.3125 -50.640625 35.5 -50.640625 L 16.046875 -50.640625 L 16.046875 -43.359375 L 22.890625 -43.359375 C 26.054688 -43.359375 29.046875 -42.863281 31.859375 -41.875 C 34.671875 -40.894531 37.128906 -39.5 39.234375 -37.6875 C 41.398438 -35.8125 43.070312 -33.585938 44.25 -31.015625 C 45.4375 -28.441406 46.03125 -25.601562 46.03125 -22.5 C 46.03125 -19.363281 45.429688 -16.40625 44.234375 -13.625 C 43.035156 -10.84375 41.367188 -8.382812 39.234375 -6.25 C 37.066406 -4.125 34.578125 -2.460938 31.765625 -1.265625 C 28.953125 -0.0664062 25.992188 0.53125 22.890625 0.53125 Z M 22.890625 0.53125 "/></g></g></g></svg>