<svg xmlns="http://www.w3.org/2000/svg" xmlns:xlink="http://www.w3.org/1999/xlink" width="256" zoomAndPan="magnify" viewBox="0 0 192 191.999996" height="256" preserveAspectRatio="xMidYMid meet" version="1.0"><defs><g/><clipPath id="8b920c09af"><path d="M 15.375 116 L 46 116 L 46 134 L 15.375 134 Z M 15.375 116 " clip-rule="nonzero"/></clipPath><clipPath id="6f7c25acc5"><path d="M 15.375 54 L 46 54 L 46 72 L 15.375 72 Z M 15.375 54 " clip-rule="nonzero"/></clipPath><clipPath id="c53581f697"><path d="M 15.375 95 L 46 95 L 46 113 L 15.375 113 Z M 15.375 95 " clip-rule="nonzero"/></clipPath><clipPath id="b32859cb4e"><path d="M 15.375 156 L 46 156 L 46 175 L 15.375 175 Z M 15.375 156 " clip-rule="nonzero"/></clipPath><clipPath id="b689153b5c"><path d="M 15.375 33 L 46 33 L 46 52 L 15.375 52 Z M 15.375 33 " clip-rule="nonzero"/></clipPath><clipPath id="43cbc5f5fc"><path d="M 15.375 74 L 46 74 L 46 93 L 15.375 93 Z M 15.375 74 " clip-rule="nonzero"/></clipPath><clipPath id="feb9fe772f"><path d="M 15.375 136 L 46 136 L 46 154 L 15.375 154 Z M 15.375 136 " clip-rule="nonzero"/></clipPath><clipPath id="cc96f039a5"><path d="M 15.375 13.5 L 46 13.5 L 46 31 L 15.375 31 Z M 15.375 13.5 " clip-rule="nonzero"/></clipPath><clipPath id="36149e914b"><path d="M 38 122 L 48.921875 122 L 48.921875 132 L 38 132 Z M 38 122 " clip-rule="nonzero"/></clipPath><clipPath id="eb9b4815e9"><path d="M 38 60 L 48.921875 60 L 48.921875 70 L 38 70 Z M 38 60 " clip-rule="nonzero"/></clipPath><clipPath id="6e2a6572db"><path d="M 38 101 L 48.921875 101 L 48.921875 112 L 38 112 Z M 38 101 " clip-rule="nonzero"/></clipPath><clipPath id="5862319096"><path d="M 38 162 L 48.921875 162 L 48.921875 173 L 38 173 Z M 38 162 " clip-rule="nonzero"/></clipPath><clipPath id="d6c6ed893f"><path d="M 38 39 L 48.921875 39 L 48.921875 50 L 38 50 Z M 38 39 " clip-rule="nonzero"/></clipPath><clipPath id="8ed1c50060"><path d="M 38 81 L 48.921875 81 L 48.921875 91 L 38 91 Z M 38 81 " clip-rule="nonzero"/></clipPath><clipPath id="66a821bc7c"><path d="M 38 142 L 48.921875 142 L 48.921875 152 L 38 152 Z M 38 142 " clip-rule="nonzero"/></clipPath><clipPath id="588fa77f2c"><path d="M 38 19 L 48.921875 19 L 48.921875 29 L 38 29 Z M 38 19 " clip-rule="nonzero"/></clipPath><clipPath id="edaf53017c"><path d="M 29.535156 56.277344 L 176.316406 56.277344 L 176.316406 186.28125 L 29.535156 186.28125 Z M 29.535156 56.277344 " clip-rule="nonzero"/></clipPath><clipPath id="9beca30812"><path d="M 29.535156 4.34375 L 176.316406 4.34375 L 176.316406 134.351562 L 29.535156 134.351562 Z M 29.535156 4.34375 " clip-rule="nonzero"/></clipPath></defs><g clip-path="url(#8b920c09af)"><path fill="#000000" d="M 42.300781 125.46875 C 40.476562 127.640625 37.28125 128.984375 33.945312 129.523438 C 30.558594 130.066406 26.984375 129.777344 24.402344 128.441406 C 23.660156 128.054688 22.246094 127.273438 21.132812 126.195312 C 20.347656 125.429688 19.609375 124.523438 19.917969 123.433594 C 20.347656 121.921875 21.792969 121.136719 23.308594 120.632812 C 25.222656 119.996094 27.347656 119.847656 28.738281 119.847656 C 29.839844 119.847656 30.734375 118.996094 30.734375 117.953125 C 30.734375 116.90625 29.839844 116.058594 28.738281 116.058594 C 26.640625 116.058594 23.214844 116.378906 20.515625 117.644531 C 18.390625 118.636719 16.707031 120.191406 16.066406 122.449219 C 15.492188 124.46875 16.152344 126.324219 17.402344 127.882812 C 18.910156 129.761719 21.320312 131.160156 22.492188 131.761719 C 25.773438 133.464844 30.304688 133.945312 34.609375 133.253906 C 38.960938 132.554688 43.042969 130.660156 45.421875 127.832031 C 46.105469 127.015625 45.964844 125.820312 45.105469 125.171875 C 44.242188 124.519531 42.988281 124.652344 42.300781 125.46875 Z M 42.300781 125.46875 " fill-opacity="1" fill-rule="evenodd"/></g><g clip-path="url(#6f7c25acc5)"><path fill="#000000" d="M 42.300781 63.546875 C 40.476562 65.71875 37.28125 67.0625 33.945312 67.601562 C 30.558594 68.144531 26.984375 67.855469 24.402344 66.519531 C 23.660156 66.132812 22.246094 65.351562 21.132812 64.273438 C 20.347656 63.507812 19.609375 62.601562 19.917969 61.511719 C 20.347656 60 21.792969 59.214844 23.308594 58.710938 C 25.222656 58.074219 27.347656 57.925781 28.738281 57.925781 C 29.839844 57.925781 30.734375 57.074219 30.734375 56.03125 C 30.734375 54.984375 29.839844 54.136719 28.738281 54.136719 C 26.640625 54.136719 23.214844 54.457031 20.515625 55.722656 C 18.390625 56.714844 16.707031 58.269531 16.066406 60.527344 C 15.492188 62.546875 16.152344 64.402344 17.402344 65.960938 C 18.910156 67.839844 21.320312 69.238281 22.492188 69.839844 C 25.773438 71.542969 30.304688 72.023438 34.609375 71.332031 C 38.960938 70.632812 43.042969 68.738281 45.421875 65.910156 C 46.105469 65.09375 45.964844 63.898438 45.105469 63.25 C 44.242188 62.597656 42.988281 62.730469 42.300781 63.546875 Z M 42.300781 63.546875 " fill-opacity="1" fill-rule="evenodd"/></g><g clip-path="url(#c53581f697)"><path fill="#000000" d="M 42.300781 104.886719 C 40.476562 107.058594 37.28125 108.402344 33.945312 108.9375 C 30.558594 109.480469 26.984375 109.191406 24.402344 107.855469 C 23.660156 107.472656 22.246094 106.691406 21.132812 105.609375 C 20.347656 104.847656 19.609375 103.9375 19.917969 102.847656 C 20.347656 101.335938 21.792969 100.554688 23.308594 100.050781 C 25.222656 99.414062 27.347656 99.261719 28.738281 99.261719 C 29.839844 99.261719 30.734375 98.414062 30.734375 97.371094 C 30.734375 96.324219 29.839844 95.476562 28.738281 95.476562 C 26.640625 95.476562 23.214844 95.792969 20.515625 97.058594 C 18.390625 98.054688 16.707031 99.609375 16.066406 101.867188 C 15.492188 103.886719 16.152344 105.742188 17.402344 107.300781 C 18.910156 109.179688 21.320312 110.574219 22.492188 111.179688 C 25.773438 112.878906 30.304688 113.363281 34.609375 112.671875 C 38.960938 111.972656 43.042969 110.074219 45.421875 107.246094 C 46.105469 106.429688 45.964844 105.238281 45.105469 104.585938 C 44.242188 103.933594 42.988281 104.070312 42.300781 104.886719 Z M 42.300781 104.886719 " fill-opacity="1" fill-rule="evenodd"/></g><g clip-path="url(#b32859cb4e)"><path fill="#000000" d="M 42.300781 166.234375 C 40.476562 168.40625 37.28125 169.75 33.945312 170.285156 C 30.558594 170.832031 26.984375 170.539062 24.402344 169.203125 C 23.660156 168.820312 22.246094 168.039062 21.132812 166.957031 C 20.347656 166.195312 19.609375 165.285156 19.917969 164.199219 C 20.347656 162.6875 21.792969 161.902344 23.308594 161.398438 C 25.222656 160.761719 27.347656 160.609375 28.738281 160.609375 C 29.839844 160.609375 30.734375 159.761719 30.734375 158.71875 C 30.734375 157.671875 29.839844 156.824219 28.738281 156.824219 C 26.640625 156.824219 23.214844 157.140625 20.515625 158.40625 C 18.390625 159.402344 16.707031 160.957031 16.066406 163.214844 C 15.492188 165.234375 16.152344 167.089844 17.402344 168.648438 C 18.910156 170.527344 21.320312 171.921875 22.492188 172.527344 C 25.773438 174.226562 30.304688 174.710938 34.609375 174.019531 C 38.960938 173.320312 43.042969 171.421875 45.421875 168.597656 C 46.105469 167.777344 45.964844 166.585938 45.105469 165.933594 C 44.242188 165.285156 42.988281 165.417969 42.300781 166.234375 Z M 42.300781 166.234375 " fill-opacity="1" fill-rule="evenodd"/></g><g clip-path="url(#b689153b5c)"><path fill="#000000" d="M 42.300781 42.964844 C 40.476562 45.136719 37.28125 46.480469 33.945312 47.015625 C 30.558594 47.558594 26.984375 47.269531 24.402344 45.933594 C 23.660156 45.550781 22.246094 44.769531 21.132812 43.6875 C 20.347656 42.925781 19.609375 42.015625 19.917969 40.925781 C 20.347656 39.414062 21.792969 38.632812 23.308594 38.128906 C 25.222656 37.492188 27.347656 37.339844 28.738281 37.339844 C 29.839844 37.339844 30.734375 36.492188 30.734375 35.449219 C 30.734375 34.402344 29.839844 33.554688 28.738281 33.554688 C 26.640625 33.554688 23.214844 33.871094 20.515625 35.136719 C 18.390625 36.132812 16.707031 37.6875 16.066406 39.945312 C 15.492188 41.964844 16.152344 43.820312 17.402344 45.378906 C 18.910156 47.257812 21.320312 48.652344 22.492188 49.257812 C 25.773438 50.957031 30.304688 51.441406 34.609375 50.75 C 38.960938 50.050781 43.042969 48.152344 45.421875 45.324219 C 46.105469 44.507812 45.964844 43.316406 45.105469 42.664062 C 44.242188 42.011719 42.988281 42.148438 42.300781 42.964844 Z M 42.300781 42.964844 " fill-opacity="1" fill-rule="evenodd"/></g><g clip-path="url(#43cbc5f5fc)"><path fill="#000000" d="M 42.300781 84.300781 C 40.476562 86.46875 37.28125 87.816406 33.945312 88.351562 C 30.558594 88.894531 26.984375 88.605469 24.402344 87.269531 C 23.660156 86.886719 22.246094 86.101562 21.132812 85.023438 C 20.347656 84.261719 19.609375 83.351562 19.917969 82.261719 C 20.347656 80.75 21.792969 79.96875 23.308594 79.460938 C 25.222656 78.828125 27.347656 78.675781 28.738281 78.675781 C 29.839844 78.675781 30.734375 77.828125 30.734375 76.78125 C 30.734375 75.738281 29.839844 74.890625 28.738281 74.890625 C 26.640625 74.890625 23.214844 75.207031 20.515625 76.472656 C 18.390625 77.46875 16.707031 79.019531 16.066406 81.28125 C 15.492188 83.296875 16.152344 85.15625 17.402344 86.714844 C 18.910156 88.589844 21.320312 89.988281 22.492188 90.59375 C 25.773438 92.292969 30.304688 92.777344 34.609375 92.085938 C 38.960938 91.386719 43.042969 89.488281 45.421875 86.660156 C 46.105469 85.84375 45.964844 84.652344 45.105469 84 C 44.242188 83.347656 42.988281 83.484375 42.300781 84.300781 Z M 42.300781 84.300781 " fill-opacity="1" fill-rule="evenodd"/></g><g clip-path="url(#feb9fe772f)"><path fill="#000000" d="M 42.300781 145.652344 C 40.476562 147.820312 37.28125 149.167969 33.945312 149.703125 C 30.558594 150.246094 26.984375 149.957031 24.402344 148.621094 C 23.660156 148.238281 22.246094 147.457031 21.132812 146.375 C 20.347656 145.613281 19.609375 144.703125 19.917969 143.613281 C 20.347656 142.101562 21.792969 141.320312 23.308594 140.8125 C 25.222656 140.179688 27.347656 140.027344 28.738281 140.027344 C 29.839844 140.027344 30.734375 139.179688 30.734375 138.132812 C 30.734375 137.089844 29.839844 136.242188 28.738281 136.242188 C 26.640625 136.242188 23.214844 136.558594 20.515625 137.824219 C 18.390625 138.820312 16.707031 140.371094 16.066406 142.632812 C 15.492188 144.648438 16.152344 146.507812 17.402344 148.066406 C 18.910156 149.941406 21.320312 151.339844 22.492188 151.945312 C 25.773438 153.644531 30.304688 154.128906 34.609375 153.4375 C 38.960938 152.738281 43.042969 150.839844 45.421875 148.011719 C 46.105469 147.195312 45.964844 146.003906 45.105469 145.351562 C 44.242188 144.699219 42.988281 144.835938 42.300781 145.652344 Z M 42.300781 145.652344 " fill-opacity="1" fill-rule="evenodd"/></g><g clip-path="url(#cc96f039a5)"><path fill="#000000" d="M 42.300781 22.382812 C 40.476562 24.550781 37.28125 25.898438 33.945312 26.433594 C 30.558594 26.976562 26.984375 26.6875 24.402344 25.351562 C 23.660156 24.96875 22.246094 24.183594 21.132812 23.105469 C 20.347656 22.34375 19.609375 21.433594 19.917969 20.34375 C 20.347656 18.832031 21.792969 18.046875 23.308594 17.542969 C 25.222656 16.90625 27.347656 16.757812 28.738281 16.757812 C 29.839844 16.757812 30.734375 15.910156 30.734375 14.863281 C 30.734375 13.820312 29.839844 12.96875 28.738281 12.96875 C 26.640625 12.96875 23.214844 13.289062 20.515625 14.554688 C 18.390625 15.550781 16.707031 17.101562 16.066406 19.359375 C 15.492188 21.378906 16.152344 23.238281 17.402344 24.796875 C 18.910156 26.671875 21.320312 28.070312 22.492188 28.675781 C 25.773438 30.375 30.304688 30.859375 34.609375 30.167969 C 38.960938 29.46875 43.042969 27.570312 45.421875 24.742188 C 46.105469 23.925781 45.964844 22.734375 45.105469 22.082031 C 44.242188 21.429688 42.988281 21.5625 42.300781 22.382812 Z M 42.300781 22.382812 " fill-opacity="1" fill-rule="evenodd"/></g><g clip-path="url(#36149e914b)"><path fill="#000000" d="M 38.8125 126.332031 C 38.414062 127.640625 38.644531 128.683594 39.082031 129.46875 C 39.871094 130.890625 41.652344 131.742188 43.609375 131.609375 C 45.28125 131.492188 46.957031 130.65625 47.832031 129.324219 C 48.476562 128.34375 48.78125 127.085938 48.296875 125.558594 C 47.507812 123.070312 44.914062 121.960938 42.691406 122.238281 C 41.125 122.4375 39.816406 123.296875 39.199219 124.554688 C 38.949219 125.066406 38.792969 125.660156 38.8125 126.332031 Z M 38.8125 126.332031 " fill-opacity="1" fill-rule="evenodd"/></g><g clip-path="url(#eb9b4815e9)"><path fill="#000000" d="M 38.8125 64.414062 C 38.414062 65.722656 38.644531 66.765625 39.082031 67.550781 C 39.871094 68.972656 41.652344 69.824219 43.609375 69.6875 C 45.28125 69.574219 46.957031 68.734375 47.832031 67.40625 C 48.476562 66.425781 48.78125 65.167969 48.296875 63.636719 C 47.507812 61.148438 44.914062 60.039062 42.691406 60.320312 C 41.125 60.519531 39.816406 61.375 39.199219 62.636719 C 38.949219 63.144531 38.792969 63.738281 38.8125 64.414062 Z M 38.8125 64.414062 " fill-opacity="1" fill-rule="evenodd"/></g><g clip-path="url(#6e2a6572db)"><path fill="#000000" d="M 38.8125 105.75 C 38.414062 107.058594 38.644531 108.101562 39.082031 108.886719 C 39.871094 110.308594 41.652344 111.160156 43.609375 111.023438 C 45.28125 110.910156 46.957031 110.070312 47.832031 108.742188 C 48.476562 107.761719 48.78125 106.503906 48.296875 104.972656 C 47.507812 102.484375 44.914062 101.375 42.691406 101.65625 C 41.125 101.851562 39.816406 102.710938 39.199219 103.972656 C 38.949219 104.480469 38.792969 105.074219 38.8125 105.75 Z M 38.8125 105.75 " fill-opacity="1" fill-rule="evenodd"/></g><g clip-path="url(#5862319096)"><path fill="#000000" d="M 38.8125 167.097656 C 38.414062 168.40625 38.644531 169.449219 39.082031 170.234375 C 39.871094 171.65625 41.652344 172.507812 43.609375 172.371094 C 45.28125 172.257812 46.957031 171.417969 47.832031 170.089844 C 48.476562 169.109375 48.78125 167.851562 48.296875 166.320312 C 47.507812 163.832031 44.914062 162.722656 42.691406 163.003906 C 41.125 163.203125 39.816406 164.058594 39.199219 165.320312 C 38.949219 165.832031 38.792969 166.421875 38.8125 167.097656 Z M 38.8125 167.097656 " fill-opacity="1" fill-rule="evenodd"/></g><g clip-path="url(#d6c6ed893f)"><path fill="#000000" d="M 38.8125 43.828125 C 38.414062 45.136719 38.644531 46.179688 39.082031 46.964844 C 39.871094 48.386719 41.652344 49.238281 43.609375 49.101562 C 45.28125 48.988281 46.957031 48.148438 47.832031 46.820312 C 48.476562 45.839844 48.78125 44.582031 48.296875 43.050781 C 47.507812 40.5625 44.914062 39.453125 42.691406 39.734375 C 41.125 39.929688 39.816406 40.789062 39.199219 42.050781 C 38.949219 42.558594 38.792969 43.152344 38.8125 43.828125 Z M 38.8125 43.828125 " fill-opacity="1" fill-rule="evenodd"/></g><g clip-path="url(#8ed1c50060)"><path fill="#000000" d="M 38.8125 85.167969 C 38.414062 86.472656 38.644531 87.515625 39.082031 88.300781 C 39.871094 89.722656 41.652344 90.574219 43.609375 90.441406 C 45.28125 90.328125 46.957031 89.488281 47.832031 88.160156 C 48.476562 87.179688 48.78125 85.921875 48.296875 84.390625 C 47.507812 81.902344 44.914062 80.792969 42.691406 81.070312 C 41.125 81.269531 39.816406 82.128906 39.199219 83.390625 C 38.949219 83.898438 38.792969 84.492188 38.8125 85.167969 Z M 38.8125 85.167969 " fill-opacity="1" fill-rule="evenodd"/></g><g clip-path="url(#66a821bc7c)"><path fill="#000000" d="M 38.8125 146.515625 C 38.414062 147.820312 38.644531 148.863281 39.082031 149.652344 C 39.871094 151.070312 41.652344 151.921875 43.609375 151.789062 C 45.28125 151.675781 46.957031 150.835938 47.832031 149.507812 C 48.476562 148.527344 48.78125 147.269531 48.296875 145.738281 C 47.507812 143.25 44.914062 142.140625 42.691406 142.421875 C 41.125 142.617188 39.816406 143.476562 39.199219 144.738281 C 38.949219 145.246094 38.792969 145.839844 38.8125 146.515625 Z M 38.8125 146.515625 " fill-opacity="1" fill-rule="evenodd"/></g><g clip-path="url(#588fa77f2c)"><path fill="#000000" d="M 38.8125 23.246094 C 38.414062 24.550781 38.644531 25.59375 39.082031 26.382812 C 39.871094 27.800781 41.652344 28.652344 43.609375 28.519531 C 45.28125 28.40625 46.957031 27.566406 47.832031 26.238281 C 48.476562 25.257812 48.78125 24 48.296875 22.46875 C 47.507812 19.980469 44.914062 18.871094 42.691406 19.152344 C 41.125 19.347656 39.816406 20.207031 39.199219 21.46875 C 38.949219 21.976562 38.792969 22.570312 38.8125 23.246094 Z M 38.8125 23.246094 " fill-opacity="1" fill-rule="evenodd"/></g><g clip-path="url(#edaf53017c)"><path fill="#000000" d="M 131.59375 10.757812 C 131.585938 10.621094 131.421875 10.65625 131.460938 10.894531 L 131.460938 50.03125 L 170.292969 50.03125 C 157.917969 36.941406 144.398438 23.855469 131.59375 10.757812 Z M 32.867188 8.105469 L 32.867188 185.226562 L 172.925781 185.226562 L 172.925781 53.351562 C 160.136719 53.347656 146.730469 53.347656 133.828125 53.347656 C 132.226562 53.347656 129.234375 53.625 128.566406 52.953125 C 127.875 52.257812 128.171875 49.183594 128.171875 47.246094 C 128.167969 34.167969 128.171875 20.027344 128.171875 7.710938 C 96.445312 7.710938 64.71875 7.710938 32.992188 7.710938 C 32.84375 7.734375 32.851562 7.921875 32.863281 8.109375 Z M 30.496094 4.390625 L 122.640625 4.390625 C 124.722656 4.390625 126.976562 4.085938 128.695312 4.390625 C 129.765625 4.582031 130.957031 5.917969 132.121094 6.914062 C 139.441406 13.160156 146.421875 20.929688 152.921875 27.476562 C 160.890625 35.511719 168.421875 43.371094 176.222656 51.488281 C 176.222656 94.070312 176.214844 136.8125 176.222656 180.054688 C 176.222656 182.617188 176.613281 187.351562 175.824219 188.144531 C 174.949219 189.023438 169.535156 188.539062 167.003906 188.539062 C 123.855469 188.539062 81.890625 188.546875 38.921875 188.539062 C 36.550781 188.539062 31.230469 189.113281 30.101562 188.277344 C 29.375 187.734375 29.578125 184.828125 29.578125 182.96875 C 29.574219 125.195312 29.578125 67.976562 29.578125 10.101562 C 29.578125 8.617188 29.359375 5.191406 29.972656 4.789062 C 30.128906 4.6875 30.148438 4.628906 30.496094 4.394531 " fill-opacity="1" fill-rule="evenodd"/></g><g clip-path="url(#9beca30812)"><path fill="#000000" d="M 131.59375 181.179688 C 131.585938 181.320312 131.421875 181.285156 131.460938 181.046875 L 131.460938 141.90625 L 170.292969 141.90625 C 157.917969 155 144.398438 168.085938 131.59375 181.179688 Z M 32.867188 183.832031 L 32.867188 6.710938 L 172.925781 6.710938 L 172.925781 138.585938 C 160.136719 138.589844 146.730469 138.589844 133.828125 138.589844 C 132.226562 138.589844 129.234375 138.3125 128.566406 138.988281 C 127.875 139.683594 128.171875 142.757812 128.171875 144.691406 C 128.167969 157.773438 128.171875 171.914062 128.171875 184.230469 C 96.445312 184.230469 64.71875 184.230469 32.992188 184.230469 C 32.84375 184.207031 32.851562 184.019531 32.863281 183.832031 Z M 30.496094 187.546875 L 122.640625 187.546875 C 124.722656 187.546875 126.976562 187.855469 128.695312 187.546875 C 129.765625 187.355469 130.957031 186.019531 132.121094 185.027344 C 139.441406 178.777344 146.421875 171.007812 152.921875 164.460938 C 160.890625 156.425781 168.421875 148.566406 176.222656 140.449219 C 176.222656 97.867188 176.214844 55.125 176.222656 11.886719 C 176.222656 9.324219 176.613281 4.589844 175.824219 3.796875 C 174.949219 2.917969 169.535156 3.398438 167.003906 3.398438 C 123.855469 3.398438 81.890625 3.394531 38.921875 3.398438 C 36.550781 3.398438 31.230469 2.824219 30.101562 3.660156 C 29.375 4.203125 29.578125 7.109375 29.578125 8.96875 C 29.574219 66.746094 29.578125 123.960938 29.578125 181.839844 C 29.578125 183.324219 29.359375 186.75 29.972656 187.148438 C 30.128906 187.25 30.148438 187.308594 30.496094 187.546875 " fill-opacity="1" fill-rule="evenodd"/></g><g fill="#000000" fill-opacity="1"><g transform="translate(97.292846, 168.173052)"><g><path d="M 0.1875 -4.34375 C 0.1875 -3.726562 -0.0195312 -3.210938 -0.4375 -2.796875 C -0.632812 -2.597656 -0.863281 -2.441406 -1.125 -2.328125 C -1.382812 -2.210938 -1.664062 -2.15625 -1.96875 -2.15625 L -19.515625 -2.15625 C -20.117188 -2.15625 -20.632812 -2.367188 -21.0625 -2.796875 C -21.457031 -3.210938 -21.65625 -3.726562 -21.65625 -4.34375 C -21.65625 -4.945312 -21.457031 -5.457031 -21.0625 -5.875 C -20.632812 -6.300781 -20.117188 -6.515625 -19.515625 -6.515625 L -12.375 -6.515625 L -12.375 -14.046875 L -19.515625 -14.046875 C -19.804688 -14.046875 -20.082031 -14.101562 -20.34375 -14.21875 C -20.613281 -14.34375 -20.851562 -14.507812 -21.0625 -14.71875 C -21.457031 -15.144531 -21.65625 -15.660156 -21.65625 -16.265625 C -21.65625 -16.867188 -21.457031 -17.378906 -21.0625 -17.796875 C -20.644531 -18.203125 -20.128906 -18.40625 -19.515625 -18.40625 L -1.96875 -18.40625 C -1.664062 -18.40625 -1.382812 -18.347656 -1.125 -18.234375 C -0.863281 -18.117188 -0.632812 -17.960938 -0.4375 -17.765625 C -0.0195312 -17.347656 0.1875 -16.832031 0.1875 -16.21875 C 0.1875 -15.613281 -0.0195312 -15.101562 -0.4375 -14.6875 C -0.632812 -14.488281 -0.863281 -14.332031 -1.125 -14.21875 C -1.382812 -14.101562 -1.664062 -14.046875 -1.96875 -14.046875 L -8 -14.046875 L -8 -6.515625 L -1.96875 -6.515625 C -1.664062 -6.515625 -1.382812 -6.457031 -1.125 -6.34375 C -0.863281 -6.226562 -0.632812 -6.070312 -0.4375 -5.875 C -0.0195312 -5.457031 0.1875 -4.945312 0.1875 -4.34375 Z M 0.1875 -4.34375 "/></g></g></g><g fill="#000000" fill-opacity="1"><g transform="translate(97.292846, 145.257097)"><g><path d="M 0 -13.96875 L 0 -4.1875 C -0.0390625 -3.601562 -0.265625 -3.128906 -0.671875 -2.765625 C -1.085938 -2.367188 -1.578125 -2.171875 -2.140625 -2.171875 L -19.453125 -2.171875 C -20.066406 -2.171875 -20.578125 -2.378906 -20.984375 -2.796875 C -21.410156 -3.222656 -21.625 -3.742188 -21.625 -4.359375 L -21.625 -13.96875 C -21.625 -14.5625 -21.410156 -15.070312 -20.984375 -15.5 C -20.554688 -15.90625 -20.046875 -16.109375 -19.453125 -16.109375 C -18.835938 -16.109375 -18.316406 -15.90625 -17.890625 -15.5 C -17.460938 -15.070312 -17.25 -14.5625 -17.25 -13.96875 L -17.25 -6.53125 L -13.140625 -6.53125 L -13.140625 -12.09375 C -13.140625 -12.707031 -12.941406 -13.222656 -12.546875 -13.640625 C -12.117188 -14.066406 -11.601562 -14.28125 -11 -14.28125 C -10.414062 -14.28125 -9.914062 -14.066406 -9.5 -13.640625 C -9.101562 -13.234375 -8.90625 -12.71875 -8.90625 -12.09375 L -8.90625 -6.53125 L -4.34375 -6.53125 L -4.34375 -13.96875 C -4.34375 -14.5625 -4.128906 -15.070312 -3.703125 -15.5 C -3.273438 -15.90625 -2.753906 -16.109375 -2.140625 -16.109375 C -1.523438 -16.109375 -1.015625 -15.90625 -0.609375 -15.5 C -0.203125 -15.082031 0 -14.570312 0 -13.96875 Z M 0 -13.96875 "/></g></g></g><g fill="#000000" fill-opacity="1"><g transform="translate(97.292846, 126.121099)"><g><path d="M 0 -13.96875 L 0 -4.25 C -0.0195312 -3.675781 -0.238281 -3.1875 -0.65625 -2.78125 C -1.0625 -2.375 -1.554688 -2.171875 -2.140625 -2.171875 L -19.515625 -2.171875 C -20.117188 -2.171875 -20.632812 -2.382812 -21.0625 -2.8125 C -21.457031 -3.238281 -21.65625 -3.753906 -21.65625 -4.359375 C -21.65625 -4.960938 -21.457031 -5.472656 -21.0625 -5.890625 C -20.632812 -6.316406 -20.117188 -6.53125 -19.515625 -6.53125 L -4.34375 -6.53125 L -4.328125 -13.96875 C -4.328125 -14.5625 -4.113281 -15.070312 -3.6875 -15.5 C -3.269531 -15.914062 -2.753906 -16.125 -2.140625 -16.125 C -1.503906 -16.125 -0.992188 -15.914062 -0.609375 -15.5 C -0.203125 -15.101562 0 -14.59375 0 -13.96875 Z M 0 -13.96875 "/></g></g></g><g fill="#000000" fill-opacity="1"><g transform="translate(97.292846, 106.477819)"><g><path d="M 0 -13.96875 L 0 -4.1875 C -0.0390625 -3.601562 -0.265625 -3.128906 -0.671875 -2.765625 C -1.085938 -2.367188 -1.578125 -2.171875 -2.140625 -2.171875 L -19.453125 -2.171875 C -20.066406 -2.171875 -20.578125 -2.378906 -20.984375 -2.796875 C -21.410156 -3.222656 -21.625 -3.742188 -21.625 -4.359375 L -21.625 -13.96875 C -21.625 -14.5625 -21.410156 -15.070312 -20.984375 -15.5 C -20.554688 -15.90625 -20.046875 -16.109375 -19.453125 -16.109375 C -18.835938 -16.109375 -18.316406 -15.90625 -17.890625 -15.5 C -17.460938 -15.070312 -17.25 -14.5625 -17.25 -13.96875 L -17.25 -6.53125 L -13.140625 -6.53125 L -13.140625 -12.09375 C -13.140625 -12.707031 -12.941406 -13.222656 -12.546875 -13.640625 C -12.117188 -14.066406 -11.601562 -14.28125 -11 -14.28125 C -10.414062 -14.28125 -9.914062 -14.066406 -9.5 -13.640625 C -9.101562 -13.234375 -8.90625 -12.71875 -8.90625 -12.09375 L -8.90625 -6.53125 L -4.34375 -6.53125 L -4.34375 -13.96875 C -4.34375 -14.5625 -4.128906 -15.070312 -3.703125 -15.5 C -3.273438 -15.90625 -2.753906 -16.109375 -2.140625 -16.109375 C -1.523438 -16.109375 -1.015625 -15.90625 -0.609375 -15.5 C -0.203125 -15.082031 0 -14.570312 0 -13.96875 Z M 0 -13.96875 "/></g></g></g><g fill="#000000" fill-opacity="1"><g transform="translate(97.292846, 87.341823)"><g><path d="M 0 -15.1875 L 0 -2.8125 C 0 -2.519531 -0.0546875 -2.238281 -0.171875 -1.96875 C -0.285156 -1.707031 -0.441406 -1.476562 -0.640625 -1.28125 C -1.066406 -0.851562 -1.578125 -0.640625 -2.171875 -0.640625 C -2.703125 -0.640625 -3.1875 -0.800781 -3.625 -1.125 L -17.296875 -10.25 L -17.296875 -3.046875 C -17.296875 -2.765625 -17.351562 -2.488281 -17.46875 -2.21875 C -17.582031 -1.945312 -17.734375 -1.710938 -17.921875 -1.515625 C -18.117188 -1.328125 -18.351562 -1.175781 -18.625 -1.0625 C -18.90625 -0.945312 -19.191406 -0.890625 -19.484375 -0.890625 C -19.773438 -0.890625 -20.054688 -0.945312 -20.328125 -1.0625 C -20.597656 -1.1875 -20.828125 -1.351562 -21.015625 -1.5625 C -21.210938 -1.75 -21.367188 -1.976562 -21.484375 -2.25 C -21.597656 -2.53125 -21.65625 -2.816406 -21.65625 -3.109375 L -21.65625 -14.703125 C -21.632812 -15.304688 -21.410156 -15.816406 -20.984375 -16.234375 C -20.546875 -16.640625 -20.035156 -16.84375 -19.453125 -16.84375 C -19.191406 -16.84375 -18.929688 -16.796875 -18.671875 -16.703125 C -18.410156 -16.609375 -18.1875 -16.492188 -18 -16.359375 L -4.359375 -7.0625 L -4.359375 -15.1875 C -4.359375 -15.488281 -4.300781 -15.769531 -4.1875 -16.03125 C -4.070312 -16.289062 -3.914062 -16.519531 -3.71875 -16.71875 C -3.300781 -17.132812 -2.785156 -17.34375 -2.171875 -17.34375 C -1.566406 -17.34375 -1.054688 -17.132812 -0.640625 -16.71875 C -0.441406 -16.519531 -0.285156 -16.289062 -0.171875 -16.03125 C -0.0546875 -15.769531 0 -15.488281 0 -15.1875 Z M 0 -15.1875 "/></g></g></g><g fill="#000000" fill-opacity="1"><g transform="translate(97.292846, 67.044011)"><g><path d="M 0.1875 -10.1875 C 0.1875 -9.09375 -0.015625 -8.046875 -0.421875 -7.046875 C -0.828125 -6.054688 -1.394531 -5.1875 -2.125 -4.4375 C -2.863281 -3.675781 -3.742188 -3.082031 -4.765625 -2.65625 C -5.796875 -2.226562 -6.921875 -2.015625 -8.140625 -2.015625 L -13.34375 -2.015625 C -14.550781 -2.015625 -15.664062 -2.226562 -16.6875 -2.65625 C -17.71875 -3.082031 -18.613281 -3.675781 -19.375 -4.4375 C -20.101562 -5.1875 -20.664062 -6.054688 -21.0625 -7.046875 C -21.457031 -8.046875 -21.65625 -9.09375 -21.65625 -10.1875 C -21.65625 -11.28125 -21.457031 -12.316406 -21.0625 -13.296875 C -20.664062 -14.285156 -20.101562 -15.160156 -19.375 -15.921875 C -18.613281 -16.679688 -17.71875 -17.273438 -16.6875 -17.703125 C -15.664062 -18.128906 -14.550781 -18.34375 -13.34375 -18.34375 L -8.140625 -18.34375 C -6.921875 -18.34375 -5.796875 -18.128906 -4.765625 -17.703125 C -3.742188 -17.273438 -2.863281 -16.679688 -2.125 -15.921875 C -1.394531 -15.160156 -0.828125 -14.285156 -0.421875 -13.296875 C -0.015625 -12.316406 0.1875 -11.28125 0.1875 -10.1875 Z M -4.21875 -10.1875 C -4.21875 -10.6875 -4.296875 -11.160156 -4.453125 -11.609375 C -4.609375 -12.054688 -4.84375 -12.445312 -5.15625 -12.78125 C -5.863281 -13.5625 -6.847656 -13.953125 -8.109375 -13.953125 L -13.375 -13.953125 C -14.019531 -13.953125 -14.585938 -13.847656 -15.078125 -13.640625 C -15.578125 -13.441406 -15.992188 -13.15625 -16.328125 -12.78125 C -16.640625 -12.445312 -16.867188 -12.054688 -17.015625 -11.609375 C -17.171875 -11.160156 -17.25 -10.6875 -17.25 -10.1875 C -17.25 -9.6875 -17.171875 -9.207031 -17.015625 -8.75 C -16.859375 -8.300781 -16.628906 -7.90625 -16.328125 -7.5625 C -15.992188 -7.1875 -15.578125 -6.898438 -15.078125 -6.703125 C -14.585938 -6.503906 -14.019531 -6.40625 -13.375 -6.40625 L -8.109375 -6.40625 C -6.847656 -6.40625 -5.863281 -6.789062 -5.15625 -7.5625 C -4.851562 -7.90625 -4.617188 -8.300781 -4.453125 -8.75 C -4.296875 -9.207031 -4.21875 -9.6875 -4.21875 -10.1875 Z M -4.21875 -10.1875 "/></g></g></g><g fill="#000000" fill-opacity="1"><g transform="translate(97.292846, 44.340798)"><g><path d="M 0.15625 -4.40625 C 0.15625 -4.113281 0.0976562 -3.828125 -0.015625 -3.546875 C -0.128906 -3.265625 -0.28125 -3.023438 -0.46875 -2.828125 C -0.894531 -2.378906 -1.421875 -2.15625 -2.046875 -2.15625 L -13.0625 -2.15625 C -14.300781 -2.15625 -15.441406 -2.332031 -16.484375 -2.6875 C -17.535156 -3.039062 -18.441406 -3.554688 -19.203125 -4.234375 C -19.984375 -4.921875 -20.582031 -5.753906 -21 -6.734375 C -21.414062 -7.722656 -21.625 -8.828125 -21.625 -10.046875 C -21.625 -11.285156 -21.421875 -12.40625 -21.015625 -13.40625 C -20.609375 -14.414062 -20.015625 -15.273438 -19.234375 -15.984375 C -18.472656 -16.679688 -17.539062 -17.210938 -16.4375 -17.578125 C -15.34375 -17.941406 -14.125 -18.125 -12.78125 -18.125 L -2.046875 -18.125 C -1.398438 -18.125 -0.875 -17.90625 -0.46875 -17.46875 C -0.28125 -17.257812 -0.128906 -17.015625 -0.015625 -16.734375 C 0.0976562 -16.460938 0.15625 -16.175781 0.15625 -15.875 C 0.15625 -15.269531 -0.0507812 -14.742188 -0.46875 -14.296875 C -0.875 -13.859375 -1.398438 -13.640625 -2.046875 -13.640625 L -12.78125 -13.640625 C -14.164062 -13.640625 -15.238281 -13.335938 -16 -12.734375 C -16.769531 -12.140625 -17.15625 -11.285156 -17.15625 -10.171875 C -17.15625 -9.003906 -16.800781 -8.125 -16.09375 -7.53125 C -15.394531 -6.945312 -14.285156 -6.65625 -12.765625 -6.65625 L -2.046875 -6.65625 C -1.429688 -6.65625 -0.90625 -6.441406 -0.46875 -6.015625 C -0.28125 -5.804688 -0.128906 -5.554688 -0.015625 -5.265625 C 0.0976562 -4.984375 0.15625 -4.695312 0.15625 -4.40625 Z M 0.15625 -4.40625 "/></g></g></g><g fill="#000000" fill-opacity="1"><g transform="translate(146.13233, 146.730161)"><g><path d="M 0.265625 -14.703125 C 0.265625 -13.066406 -0.0234375 -11.523438 -0.609375 -10.078125 C -1.203125 -8.628906 -2.039062 -7.363281 -3.125 -6.28125 C -4.25 -5.164062 -5.570312 -4.300781 -7.09375 -3.6875 C -8.613281 -3.070312 -10.269531 -2.765625 -12.0625 -2.765625 L -19.78125 -2.765625 C -21.570312 -2.765625 -23.226562 -3.070312 -24.75 -3.6875 C -26.269531 -4.300781 -27.585938 -5.164062 -28.703125 -6.28125 C -29.796875 -7.363281 -30.632812 -8.628906 -31.21875 -10.078125 C -31.8125 -11.523438 -32.109375 -13.066406 -32.109375 -14.703125 C -32.109375 -17.066406 -31.550781 -19.171875 -30.4375 -21.015625 C -30.007812 -21.710938 -29.484375 -22.378906 -28.859375 -23.015625 C -28.242188 -23.660156 -27.523438 -24.265625 -26.703125 -24.828125 C -26.046875 -25.273438 -25.332031 -25.5 -24.5625 -25.5 C -23.6875 -25.5 -22.953125 -25.175781 -22.359375 -24.53125 C -21.722656 -23.882812 -21.40625 -23.085938 -21.40625 -22.140625 C -21.40625 -21.117188 -21.785156 -20.375 -22.546875 -19.90625 C -23.140625 -19.507812 -23.597656 -19.1875 -23.921875 -18.9375 C -24.253906 -18.6875 -24.53125 -18.394531 -24.75 -18.0625 C -25.300781 -17.257812 -25.578125 -16.140625 -25.578125 -14.703125 C -25.578125 -13.117188 -25.125 -11.859375 -24.21875 -10.921875 C -23.164062 -9.816406 -21.703125 -9.265625 -19.828125 -9.265625 L -12.015625 -9.265625 C -10.140625 -9.265625 -8.675781 -9.816406 -7.625 -10.921875 C -6.71875 -11.859375 -6.265625 -13.117188 -6.265625 -14.703125 C -6.265625 -16.109375 -6.539062 -17.234375 -7.09375 -18.078125 C -7.3125 -18.421875 -7.585938 -18.71875 -7.921875 -18.96875 C -8.253906 -19.226562 -8.710938 -19.539062 -9.296875 -19.90625 C -9.671875 -20.144531 -9.945312 -20.460938 -10.125 -20.859375 C -10.3125 -21.253906 -10.40625 -21.6875 -10.40625 -22.15625 C -10.40625 -23.09375 -10.097656 -23.894531 -9.484375 -24.5625 C -8.859375 -25.1875 -8.125 -25.5 -7.28125 -25.5 C -6.601562 -25.5 -5.925781 -25.289062 -5.25 -24.875 C -4.582031 -24.46875 -3.867188 -23.898438 -3.109375 -23.171875 C -1.703125 -21.785156 -0.726562 -20.144531 -0.1875 -18.25 C 0.113281 -17.257812 0.265625 -16.078125 0.265625 -14.703125 Z M 0.265625 -14.703125 "/></g></g></g><g fill="#000000" fill-opacity="1"><g transform="translate(146.13233, 115.73741)"><g><path d="M 0.265625 -6.453125 C 0.265625 -5.546875 -0.0390625 -4.785156 -0.65625 -4.171875 C -0.945312 -3.878906 -1.285156 -3.648438 -1.671875 -3.484375 C -2.054688 -3.316406 -2.46875 -3.234375 -2.90625 -3.234375 L -28.921875 -3.234375 C -29.816406 -3.234375 -30.578125 -3.546875 -31.203125 -4.171875 C -31.804688 -4.804688 -32.109375 -5.566406 -32.109375 -6.453125 C -32.109375 -7.359375 -31.804688 -8.117188 -31.203125 -8.734375 C -30.578125 -9.367188 -29.816406 -9.6875 -28.921875 -9.6875 L -2.90625 -9.6875 C -2.46875 -9.6875 -2.054688 -9.597656 -1.671875 -9.421875 C -1.285156 -9.253906 -0.945312 -9.023438 -0.65625 -8.734375 C -0.0390625 -8.117188 0.265625 -7.359375 0.265625 -6.453125 Z M -34.34375 -6.484375 C -34.34375 -5.441406 -34.707031 -4.554688 -35.4375 -3.828125 C -36.164062 -3.109375 -37.046875 -2.75 -38.078125 -2.75 C -38.566406 -2.75 -39.039062 -2.84375 -39.5 -3.03125 C -39.957031 -3.226562 -40.359375 -3.492188 -40.703125 -3.828125 C -41.441406 -4.578125 -41.8125 -5.460938 -41.8125 -6.484375 C -41.8125 -6.960938 -41.707031 -7.429688 -41.5 -7.890625 C -41.300781 -8.359375 -41.035156 -8.757812 -40.703125 -9.09375 C -40.359375 -9.4375 -39.957031 -9.703125 -39.5 -9.890625 C -39.039062 -10.085938 -38.566406 -10.1875 -38.078125 -10.1875 C -37.046875 -10.1875 -36.164062 -9.820312 -35.4375 -9.09375 C -35.09375 -8.757812 -34.820312 -8.359375 -34.625 -7.890625 C -34.4375 -7.429688 -34.34375 -6.960938 -34.34375 -6.484375 Z M -34.34375 -6.484375 "/></g></g></g><g fill="#000000" fill-opacity="1"><g transform="translate(146.13233, 99.349998)"><g><path d="M 0 -20.703125 L 0 -6.3125 C -0.03125 -5.457031 -0.351562 -4.726562 -0.96875 -4.125 C -1.570312 -3.53125 -2.304688 -3.234375 -3.171875 -3.234375 L -28.921875 -3.234375 C -29.816406 -3.234375 -30.578125 -3.546875 -31.203125 -4.171875 C -31.804688 -4.804688 -32.109375 -5.566406 -32.109375 -6.453125 C -32.109375 -7.359375 -31.804688 -8.117188 -31.203125 -8.734375 C -30.578125 -9.367188 -29.816406 -9.6875 -28.921875 -9.6875 L -6.4375 -9.6875 L -6.40625 -20.703125 C -6.40625 -21.585938 -6.085938 -22.347656 -5.453125 -22.984375 C -4.835938 -23.597656 -4.078125 -23.90625 -3.171875 -23.90625 C -2.234375 -23.90625 -1.472656 -23.597656 -0.890625 -22.984375 C -0.296875 -22.378906 0 -21.617188 0 -20.703125 Z M 0 -20.703125 "/></g></g></g><g fill="#000000" fill-opacity="1"><g transform="translate(146.13233, 70.225376)"><g><path d="M 0.296875 -13.03125 C 0.296875 -12.144531 -0.0078125 -11.410156 -0.625 -10.828125 C -1.207031 -10.242188 -1.960938 -9.953125 -2.890625 -9.953125 L -25.625 -9.953125 L -25.625 -3.78125 C -25.625 -2.894531 -25.941406 -2.132812 -26.578125 -1.5 C -27.191406 -0.882812 -27.953125 -0.578125 -28.859375 -0.578125 C -29.742188 -0.578125 -30.492188 -0.882812 -31.109375 -1.5 C -31.742188 -2.132812 -32.0625 -2.894531 -32.0625 -3.78125 L -32.0625 -22.328125 C -32.0625 -22.765625 -31.972656 -23.179688 -31.796875 -23.578125 C -31.628906 -23.972656 -31.398438 -24.316406 -31.109375 -24.609375 C -30.804688 -24.898438 -30.457031 -25.128906 -30.0625 -25.296875 C -29.664062 -25.472656 -29.25 -25.5625 -28.8125 -25.5625 C -28.375 -25.5625 -27.957031 -25.472656 -27.5625 -25.296875 C -27.175781 -25.128906 -26.835938 -24.898438 -26.546875 -24.609375 C -25.929688 -23.992188 -25.625 -23.234375 -25.625 -22.328125 L -25.625 -16.28125 L -2.890625 -16.28125 C -2.453125 -16.28125 -2.035156 -16.195312 -1.640625 -16.03125 C -1.253906 -15.863281 -0.914062 -15.632812 -0.625 -15.34375 C -0.0078125 -14.695312 0.296875 -13.925781 0.296875 -13.03125 Z M 0.296875 -13.03125 "/></g></g></g></svg>