<svg xmlns="http://www.w3.org/2000/svg" xmlns:xlink="http://www.w3.org/1999/xlink" width="256" zoomAndPan="magnify" viewBox="0 0 192 191.999996" height="256" preserveAspectRatio="xMidYMid meet" version="1.0"><defs><g/><clipPath id="50ad5b7b44"><path d="M 88 63 L 161.191406 63 L 161.191406 137.273438 L 88 137.273438 Z M 88 63 " clip-rule="nonzero"/></clipPath><clipPath id="1b3b2dd0e0"><path d="M 61 15.015625 L 135 15.015625 L 135 89 L 61 89 Z M 61 15.015625 " clip-rule="nonzero"/></clipPath><clipPath id="af7caedda0"><path d="M 34.722656 63 L 108 63 L 108 137.273438 L 34.722656 137.273438 Z M 34.722656 63 " clip-rule="nonzero"/></clipPath><clipPath id="46f88b69ab"><path d="M 22.070312 56.054688 L 169.621094 56.054688 L 169.621094 186.742188 L 22.070312 186.742188 Z M 22.070312 56.054688 " clip-rule="nonzero"/></clipPath><clipPath id="f8c0c63f23"><path d="M 22.070312 3.851562 L 169.621094 3.851562 L 169.621094 134.539062 L 22.070312 134.539062 Z M 22.070312 3.851562 " clip-rule="nonzero"/></clipPath></defs><g clip-path="url(#50ad5b7b44)"><path fill="#fff200" d="M 161.074219 100.34375 C 161.074219 101.554688 161.015625 102.761719 160.898438 103.964844 C 160.78125 105.167969 160.605469 106.363281 160.371094 107.550781 C 160.140625 108.734375 159.847656 109.90625 159.503906 111.0625 C 159.15625 112.222656 158.753906 113.359375 158.296875 114.476562 C 157.839844 115.59375 157.328125 116.6875 156.765625 117.753906 C 156.203125 118.820312 155.589844 119.855469 154.925781 120.859375 C 154.261719 121.867188 153.550781 122.835938 152.792969 123.769531 C 152.035156 124.707031 151.234375 125.601562 150.386719 126.457031 C 149.542969 127.3125 148.660156 128.121094 147.734375 128.890625 C 146.8125 129.65625 145.851562 130.375 144.859375 131.046875 C 143.867188 131.71875 142.84375 132.339844 141.789062 132.910156 C 140.734375 133.480469 139.65625 134 138.550781 134.460938 C 137.449219 134.925781 136.324219 135.332031 135.183594 135.683594 C 134.039062 136.03125 132.882812 136.328125 131.710938 136.5625 C 130.539062 136.796875 129.355469 136.976562 128.167969 137.09375 C 126.980469 137.210938 125.785156 137.273438 124.59375 137.273438 C 123.398438 137.273438 122.207031 137.210938 121.015625 137.09375 C 119.828125 136.976562 118.648438 136.796875 117.476562 136.5625 C 116.304688 136.328125 115.144531 136.03125 114.003906 135.683594 C 112.859375 135.332031 111.734375 134.925781 110.632812 134.460938 C 109.527344 134 108.449219 133.480469 107.394531 132.910156 C 106.339844 132.339844 105.316406 131.71875 104.324219 131.046875 C 103.332031 130.375 102.371094 129.65625 101.449219 128.890625 C 100.523438 128.121094 99.640625 127.3125 98.796875 126.457031 C 97.949219 125.601562 97.148438 124.707031 96.390625 123.769531 C 95.632812 122.835938 94.921875 121.867188 94.257812 120.859375 C 93.59375 119.855469 92.980469 118.820312 92.417969 117.753906 C 91.855469 116.6875 91.34375 115.59375 90.886719 114.476562 C 90.429688 113.359375 90.027344 112.222656 89.679688 111.0625 C 89.335938 109.90625 89.042969 108.734375 88.8125 107.550781 C 88.578125 106.363281 88.402344 105.167969 88.285156 103.964844 C 88.167969 102.761719 88.109375 101.554688 88.109375 100.34375 C 88.109375 99.136719 88.167969 97.929688 88.285156 96.726562 C 88.402344 95.523438 88.578125 94.328125 88.8125 93.140625 C 89.042969 91.953125 89.335938 90.78125 89.679688 89.625 C 90.027344 88.46875 90.429688 87.332031 90.886719 86.214844 C 91.34375 85.097656 91.855469 84.003906 92.417969 82.9375 C 92.980469 81.871094 93.59375 80.835938 94.257812 79.828125 C 94.921875 78.824219 95.632812 77.851562 96.390625 76.917969 C 97.148438 75.984375 97.949219 75.089844 98.796875 74.234375 C 99.640625 73.378906 100.523438 72.566406 101.449219 71.800781 C 102.371094 71.03125 103.332031 70.3125 104.324219 69.640625 C 105.316406 68.96875 106.339844 68.347656 107.394531 67.777344 C 108.449219 67.207031 109.527344 66.691406 110.632812 66.230469 C 111.734375 65.765625 112.859375 65.359375 114.003906 65.007812 C 115.144531 64.65625 116.304688 64.363281 117.476562 64.128906 C 118.648438 63.890625 119.828125 63.714844 121.015625 63.59375 C 122.207031 63.476562 123.398438 63.417969 124.59375 63.417969 C 125.785156 63.417969 126.980469 63.476562 128.167969 63.59375 C 129.355469 63.714844 130.539062 63.890625 131.710938 64.128906 C 132.882812 64.363281 134.039062 64.65625 135.183594 65.007812 C 136.324219 65.359375 137.449219 65.765625 138.550781 66.230469 C 139.65625 66.691406 140.734375 67.207031 141.789062 67.777344 C 142.84375 68.347656 143.867188 68.96875 144.859375 69.640625 C 145.851562 70.3125 146.8125 71.03125 147.734375 71.800781 C 148.660156 72.566406 149.542969 73.378906 150.386719 74.234375 C 151.234375 75.089844 152.035156 75.984375 152.792969 76.917969 C 153.550781 77.851562 154.261719 78.824219 154.925781 79.828125 C 155.589844 80.835938 156.203125 81.871094 156.765625 82.9375 C 157.328125 84.003906 157.839844 85.097656 158.296875 86.214844 C 158.753906 87.332031 159.15625 88.46875 159.503906 89.625 C 159.847656 90.78125 160.140625 91.953125 160.371094 93.140625 C 160.605469 94.328125 160.78125 95.523438 160.898438 96.726562 C 161.015625 97.929688 161.074219 99.136719 161.074219 100.34375 Z M 161.074219 100.34375 " fill-opacity="1" fill-rule="nonzero"/></g><g clip-path="url(#1b3b2dd0e0)"><path fill="#00aeef" d="M 134.4375 51.945312 C 134.4375 53.152344 134.378906 54.359375 134.261719 55.5625 C 134.144531 56.765625 133.96875 57.960938 133.738281 59.148438 C 133.503906 60.332031 133.214844 61.503906 132.867188 62.664062 C 132.519531 63.820312 132.117188 64.957031 131.660156 66.074219 C 131.203125 67.191406 130.695312 68.285156 130.128906 69.351562 C 129.566406 70.417969 128.953125 71.453125 128.289062 72.460938 C 127.625 73.464844 126.914062 74.433594 126.15625 75.371094 C 125.398438 76.304688 124.597656 77.199219 123.753906 78.054688 C 122.90625 78.910156 122.023438 79.722656 121.101562 80.488281 C 120.175781 81.253906 119.21875 81.976562 118.226562 82.648438 C 117.230469 83.320312 116.207031 83.941406 115.152344 84.511719 C 114.101562 85.082031 113.023438 85.597656 111.917969 86.058594 C 110.8125 86.523438 109.691406 86.929688 108.546875 87.28125 C 107.402344 87.632812 106.246094 87.925781 105.074219 88.160156 C 103.902344 88.398438 102.722656 88.574219 101.53125 88.691406 C 100.34375 88.8125 99.152344 88.871094 97.957031 88.871094 C 96.761719 88.871094 95.570312 88.8125 94.382812 88.691406 C 93.191406 88.574219 92.011719 88.398438 90.839844 88.160156 C 89.667969 87.925781 88.511719 87.632812 87.367188 87.28125 C 86.222656 86.929688 85.101562 86.523438 83.996094 86.058594 C 82.890625 85.597656 81.8125 85.082031 80.757812 84.511719 C 79.707031 83.941406 78.683594 83.320312 77.6875 82.648438 C 76.695312 81.976562 75.738281 81.253906 74.8125 80.488281 C 73.890625 79.722656 73.003906 78.910156 72.160156 78.054688 C 71.316406 77.199219 70.515625 76.304688 69.757812 75.371094 C 69 74.433594 68.289062 73.464844 67.625 72.460938 C 66.960938 71.453125 66.347656 70.417969 65.785156 69.351562 C 65.21875 68.285156 64.710938 67.191406 64.253906 66.074219 C 63.796875 64.957031 63.394531 63.820312 63.046875 62.664062 C 62.699219 61.503906 62.410156 60.332031 62.175781 59.148438 C 61.945312 57.960938 61.769531 56.765625 61.652344 55.5625 C 61.535156 54.359375 61.476562 53.152344 61.476562 51.945312 C 61.476562 50.734375 61.535156 49.527344 61.652344 48.324219 C 61.769531 47.121094 61.945312 45.925781 62.175781 44.738281 C 62.410156 43.554688 62.699219 42.382812 63.046875 41.222656 C 63.394531 40.066406 63.796875 38.929688 64.253906 37.8125 C 64.710938 36.695312 65.21875 35.601562 65.785156 34.535156 C 66.347656 33.46875 66.960938 32.433594 67.625 31.429688 C 68.289062 30.421875 69 29.453125 69.757812 28.515625 C 70.515625 27.582031 71.316406 26.6875 72.160156 25.832031 C 73.003906 24.976562 73.890625 24.164062 74.8125 23.398438 C 75.738281 22.632812 76.695312 21.910156 77.6875 21.238281 C 78.683594 20.566406 79.707031 19.945312 80.761719 19.375 C 81.8125 18.804688 82.890625 18.289062 83.996094 17.828125 C 85.101562 17.363281 86.222656 16.957031 87.367188 16.605469 C 88.511719 16.253906 89.667969 15.960938 90.839844 15.726562 C 92.011719 15.488281 93.191406 15.3125 94.382812 15.195312 C 95.570312 15.074219 96.761719 15.015625 97.957031 15.015625 C 99.152344 15.015625 100.34375 15.074219 101.53125 15.195312 C 102.722656 15.3125 103.902344 15.488281 105.074219 15.726562 C 106.246094 15.960938 107.402344 16.253906 108.546875 16.605469 C 109.691406 16.957031 110.8125 17.363281 111.917969 17.828125 C 113.023438 18.289062 114.101562 18.804688 115.152344 19.375 C 116.207031 19.945312 117.230469 20.566406 118.226562 21.238281 C 119.21875 21.910156 120.175781 22.632812 121.101562 23.398438 C 122.023438 24.164062 122.90625 24.976562 123.753906 25.832031 C 124.597656 26.6875 125.398438 27.582031 126.15625 28.515625 C 126.914062 29.453125 127.625 30.421875 128.289062 31.429688 C 128.953125 32.433594 129.566406 33.46875 130.128906 34.535156 C 130.695312 35.601562 131.203125 36.695312 131.660156 37.8125 C 132.117188 38.929688 132.519531 40.066406 132.867188 41.222656 C 133.214844 42.382812 133.503906 43.554688 133.738281 44.738281 C 133.96875 45.925781 134.144531 47.121094 134.261719 48.324219 C 134.378906 49.527344 134.4375 50.734375 134.4375 51.945312 Z M 134.4375 51.945312 " fill-opacity="1" fill-rule="nonzero"/></g><g clip-path="url(#af7caedda0)"><path fill="#ec008c" d="M 107.804688 100.34375 C 107.804688 101.554688 107.746094 102.761719 107.628906 103.964844 C 107.511719 105.167969 107.335938 106.363281 107.101562 107.550781 C 106.867188 108.734375 106.578125 109.90625 106.230469 111.0625 C 105.886719 112.222656 105.484375 113.359375 105.027344 114.476562 C 104.570312 115.59375 104.058594 116.6875 103.496094 117.753906 C 102.933594 118.820312 102.320312 119.855469 101.65625 120.859375 C 100.992188 121.867188 100.28125 122.835938 99.523438 123.769531 C 98.765625 124.707031 97.960938 125.601562 97.117188 126.457031 C 96.273438 127.3125 95.390625 128.121094 94.464844 128.890625 C 93.542969 129.65625 92.582031 130.375 91.589844 131.046875 C 90.597656 131.71875 89.574219 132.339844 88.519531 132.910156 C 87.464844 133.480469 86.386719 134 85.28125 134.460938 C 84.179688 134.925781 83.054688 135.332031 81.910156 135.683594 C 80.769531 136.03125 79.609375 136.328125 78.4375 136.5625 C 77.265625 136.796875 76.085938 136.976562 74.898438 137.09375 C 73.707031 137.210938 72.515625 137.273438 71.320312 137.273438 C 70.128906 137.273438 68.933594 137.210938 67.746094 137.09375 C 66.558594 136.976562 65.375 136.796875 64.203125 136.5625 C 63.03125 136.328125 61.875 136.03125 60.730469 135.683594 C 59.589844 135.332031 58.464844 134.925781 57.359375 134.460938 C 56.257812 134 55.179688 133.480469 54.125 132.910156 C 53.070312 132.339844 52.046875 131.71875 51.054688 131.046875 C 50.058594 130.375 49.101562 129.65625 48.179688 128.890625 C 47.253906 128.121094 46.371094 127.3125 45.527344 126.457031 C 44.679688 125.601562 43.878906 124.707031 43.121094 123.769531 C 42.363281 122.835938 41.652344 121.867188 40.988281 120.859375 C 40.324219 119.855469 39.710938 118.820312 39.148438 117.753906 C 38.585938 116.6875 38.074219 115.59375 37.617188 114.476562 C 37.160156 113.359375 36.757812 112.222656 36.410156 111.0625 C 36.066406 109.90625 35.773438 108.734375 35.542969 107.550781 C 35.308594 106.363281 35.132812 105.167969 35.015625 103.964844 C 34.898438 102.761719 34.839844 101.554688 34.839844 100.34375 C 34.839844 99.136719 34.898438 97.929688 35.015625 96.726562 C 35.132812 95.523438 35.308594 94.328125 35.542969 93.140625 C 35.773438 91.953125 36.066406 90.78125 36.410156 89.625 C 36.757812 88.46875 37.160156 87.332031 37.617188 86.214844 C 38.074219 85.097656 38.585938 84.003906 39.148438 82.9375 C 39.710938 81.871094 40.324219 80.835938 40.988281 79.828125 C 41.652344 78.824219 42.363281 77.851562 43.121094 76.917969 C 43.878906 75.984375 44.679688 75.089844 45.527344 74.234375 C 46.371094 73.378906 47.253906 72.566406 48.179688 71.800781 C 49.101562 71.03125 50.058594 70.3125 51.054688 69.640625 C 52.046875 68.96875 53.070312 68.347656 54.125 67.777344 C 55.179688 67.207031 56.257812 66.691406 57.359375 66.230469 C 58.464844 65.765625 59.589844 65.359375 60.730469 65.007812 C 61.875 64.65625 63.03125 64.363281 64.203125 64.128906 C 65.375 63.890625 66.558594 63.714844 67.746094 63.59375 C 68.933594 63.476562 70.128906 63.417969 71.320312 63.417969 C 72.515625 63.417969 73.707031 63.476562 74.898438 63.59375 C 76.085938 63.714844 77.265625 63.890625 78.4375 64.128906 C 79.609375 64.363281 80.769531 64.65625 81.910156 65.007812 C 83.054688 65.359375 84.179688 65.765625 85.28125 66.230469 C 86.386719 66.691406 87.464844 67.207031 88.519531 67.777344 C 89.574219 68.347656 90.597656 68.96875 91.589844 69.640625 C 92.582031 70.3125 93.542969 71.03125 94.464844 71.800781 C 95.390625 72.566406 96.273438 73.378906 97.117188 74.234375 C 97.960938 75.089844 98.765625 75.984375 99.523438 76.917969 C 100.28125 77.851562 100.992188 78.824219 101.65625 79.828125 C 102.320312 80.835938 102.933594 81.871094 103.496094 82.9375 C 104.058594 84.003906 104.570312 85.097656 105.027344 86.214844 C 105.484375 87.332031 105.886719 88.46875 106.230469 89.625 C 106.578125 90.78125 106.867188 91.953125 107.101562 93.140625 C 107.335938 94.328125 107.511719 95.523438 107.628906 96.726562 C 107.746094 97.929688 107.804688 99.136719 107.804688 100.34375 Z M 107.804688 100.34375 " fill-opacity="1" fill-rule="nonzero"/></g><path fill="#17a31a" d="M 132.34375 64.261719 C 129.84375 63.722656 127.269531 63.417969 124.59375 63.417969 C 114.089844 63.417969 104.597656 67.914062 97.957031 75.121094 C 94.574219 78.800781 91.898438 83.171875 90.207031 88 C 92.707031 88.539062 95.28125 88.84375 97.957031 88.84375 C 100.632812 88.84375 103.207031 88.5625 105.707031 88 C 118.105469 85.292969 128.175781 76.195312 132.34375 64.261719 Z M 132.34375 64.261719 " fill-opacity="1" fill-rule="nonzero"/><path fill="#000000" d="M 105.707031 88.027344 C 103.207031 88.5625 100.632812 88.871094 97.957031 88.871094 C 95.28125 88.871094 92.707031 88.589844 90.207031 88.027344 C 91.898438 83.199219 94.546875 78.828125 97.957031 75.148438 C 101.339844 78.828125 104.015625 83.199219 105.707031 88.027344 Z M 105.707031 88.027344 " fill-opacity="1" fill-rule="nonzero"/><path fill="#e90c17" d="M 90.207031 88.027344 C 88.84375 91.886719 88.109375 96.050781 88.109375 100.371094 C 88.109375 110.132812 91.847656 118.972656 97.933594 125.59375 C 104.042969 119 107.753906 110.132812 107.753906 100.371094 C 107.753906 96.050781 107.019531 91.886719 105.65625 88.027344 C 103.15625 88.5625 100.582031 88.871094 97.90625 88.871094 C 95.230469 88.871094 92.707031 88.5625 90.207031 88.027344 Z M 90.207031 88.027344 " fill-opacity="1" fill-rule="nonzero"/><path fill="#020e81" d="M 71.320312 63.441406 C 68.671875 63.441406 66.070312 63.722656 63.570312 64.285156 C 67.738281 76.222656 77.808594 85.320312 90.207031 88.027344 C 91.898438 83.199219 94.546875 78.828125 97.957031 75.148438 C 91.292969 67.941406 81.824219 63.441406 71.320312 63.441406 Z M 71.320312 63.441406 " fill-opacity="1" fill-rule="nonzero"/><g clip-path="url(#46f88b69ab)"><path fill="#000000" d="M 124.664062 10.296875 C 124.65625 10.15625 124.492188 10.191406 124.527344 10.433594 L 124.527344 49.777344 L 163.566406 49.777344 C 151.128906 36.617188 137.535156 23.460938 124.664062 10.296875 Z M 25.417969 7.628906 L 25.417969 185.683594 L 166.214844 185.683594 L 166.214844 53.113281 C 153.359375 53.113281 139.882812 53.113281 126.910156 53.113281 C 125.300781 53.113281 122.292969 53.390625 121.621094 52.710938 C 120.925781 52.011719 121.222656 48.921875 121.222656 46.976562 C 121.21875 33.828125 121.222656 19.613281 121.222656 7.234375 C 89.332031 7.234375 57.4375 7.234375 25.546875 7.234375 C 25.394531 7.253906 25.40625 7.445312 25.417969 7.632812 Z M 23.035156 3.898438 L 115.664062 3.898438 C 117.757812 3.898438 120.023438 3.585938 121.75 3.898438 C 122.828125 4.089844 124.023438 5.429688 125.195312 6.429688 C 132.554688 12.710938 139.570312 20.519531 146.105469 27.101562 C 154.113281 35.179688 161.6875 43.082031 169.527344 51.242188 C 169.527344 94.046875 169.519531 137.011719 169.527344 180.480469 C 169.527344 183.054688 169.921875 187.816406 169.125 188.613281 C 168.25 189.496094 162.804688 189.011719 160.257812 189.011719 C 116.886719 189.011719 74.699219 189.015625 31.507812 189.011719 C 29.125 189.011719 23.773438 189.589844 22.640625 188.75 C 21.90625 188.203125 22.113281 185.28125 22.113281 183.414062 C 22.109375 125.332031 22.113281 67.816406 22.113281 9.636719 C 22.109375 8.144531 21.890625 4.699219 22.507812 4.296875 C 22.667969 4.195312 22.683594 4.136719 23.039062 3.898438 " fill-opacity="1" fill-rule="evenodd"/></g><g clip-path="url(#f8c0c63f23)"><path fill="#000000" d="M 124.664062 181.613281 C 124.65625 181.753906 124.492188 181.71875 124.527344 181.480469 L 124.527344 142.136719 L 163.566406 142.136719 C 151.128906 155.292969 137.535156 168.449219 124.664062 181.613281 Z M 25.417969 184.28125 L 25.417969 6.230469 L 166.214844 6.230469 L 166.214844 138.796875 C 153.359375 138.800781 139.882812 138.800781 126.910156 138.800781 C 125.300781 138.800781 122.292969 138.519531 121.621094 139.199219 C 120.925781 139.898438 121.222656 142.988281 121.222656 144.933594 C 121.21875 158.082031 121.222656 172.296875 121.222656 184.679688 C 89.332031 184.679688 57.4375 184.679688 25.546875 184.679688 C 25.394531 184.65625 25.40625 184.46875 25.417969 184.277344 Z M 23.035156 188.015625 L 115.664062 188.015625 C 117.757812 188.015625 120.023438 188.324219 121.75 188.015625 C 122.828125 187.824219 124.023438 186.480469 125.195312 185.480469 C 132.554688 179.199219 139.570312 171.390625 146.105469 164.808594 C 154.113281 156.730469 161.6875 148.828125 169.527344 140.667969 C 169.527344 97.863281 169.519531 54.898438 169.527344 11.429688 C 169.527344 8.855469 169.921875 4.09375 169.125 3.296875 C 168.25 2.414062 162.804688 2.898438 160.257812 2.898438 C 116.886719 2.898438 74.699219 2.894531 31.507812 2.898438 C 29.125 2.898438 23.773438 2.324219 22.640625 3.164062 C 21.90625 3.707031 22.113281 6.628906 22.113281 8.5 C 22.109375 66.578125 22.113281 124.09375 22.113281 182.277344 C 22.109375 183.765625 21.890625 187.210938 22.507812 187.613281 C 22.667969 187.714844 22.683594 187.773438 23.039062 188.011719 " fill-opacity="1" fill-rule="evenodd"/></g><g fill="#000000" fill-opacity="1"><g transform="translate(39.305211, 169.910263)"><g><path d="M 2.375 -22.34375 L 10.953125 -22.34375 C 12.617188 -22.34375 13.929688 -22.179688 14.890625 -21.859375 C 15.859375 -21.546875 16.554688 -20.953125 16.984375 -20.078125 C 17.421875 -19.203125 17.640625 -17.882812 17.640625 -16.125 L 17.640625 -15.90625 C 17.640625 -14.238281 17.441406 -12.953125 17.046875 -12.046875 C 16.660156 -11.140625 15.96875 -10.488281 14.96875 -10.09375 C 15.539062 -8.59375 16.164062 -7.015625 16.84375 -5.359375 C 17.519531 -3.710938 18.242188 -1.925781 19.015625 0 L 16.734375 0 L 12.890625 -9.703125 L 4.4375 -9.703125 L 4.4375 0 L 2.375 0 Z M 4.4375 -20.484375 L 4.4375 -11.59375 L 10.953125 -11.59375 C 12.160156 -11.59375 13.101562 -11.679688 13.78125 -11.859375 C 14.457031 -12.035156 14.921875 -12.429688 15.171875 -13.046875 C 15.429688 -13.660156 15.5625 -14.613281 15.5625 -15.90625 L 15.5625 -16.125 C 15.5625 -17.414062 15.429688 -18.367188 15.171875 -18.984375 C 14.921875 -19.609375 14.457031 -20.015625 13.78125 -20.203125 C 13.101562 -20.390625 12.160156 -20.484375 10.953125 -20.484375 Z M 4.4375 -20.484375 "/></g></g></g><g fill="#000000" fill-opacity="1"><g transform="translate(61.341334, 169.910263)"><g><path d="M 2.375 0 L 2.375 -22.34375 L 16.390625 -22.34375 L 16.390625 -20.484375 L 4.40625 -20.484375 L 4.40625 -12.296875 L 15.4375 -12.296875 L 15.4375 -10.4375 L 4.40625 -10.4375 L 4.40625 -1.8125 L 16.390625 -1.8125 L 16.390625 0 Z M 2.375 0 "/></g></g></g><g fill="#000000" fill-opacity="1"><g transform="translate(82.040736, 169.910263)"><g><path d="M 4.40625 -19.875 L 4.40625 0 L 2.375 0 L 2.375 -22.34375 L 5.265625 -22.34375 L 17.203125 -2.28125 L 17.203125 -22.34375 L 19.234375 -22.34375 L 19.234375 0 L 16.125 0 Z M 4.40625 -19.875 "/></g></g></g><g fill="#000000" fill-opacity="1"><g transform="translate(106.664083, 169.910263)"><g><path d="M 16.078125 0 L 8.75 -10.90625 L 4.4375 -6.171875 L 4.4375 0 L 2.375 0 L 2.375 -22.34375 L 4.4375 -22.34375 L 4.4375 -8.96875 L 15.875 -22.34375 L 18.453125 -22.34375 L 10.09375 -12.421875 L 18.59375 0 Z M 16.078125 0 "/></g></g></g><g fill="#000000" fill-opacity="1"><g transform="translate(128.61395, 169.910263)"><g><path d="M 15.875 -1.8125 L 15.875 0 L 2.375 0 L 2.375 -22.34375 L 4.4375 -22.34375 L 4.4375 -1.8125 Z M 15.875 -1.8125 "/></g></g></g><g fill="#000000" fill-opacity="1"><g transform="translate(147.933483, 169.910263)"><g><path d="M 2.375 -29.15625 L 4.40625 -29.15625 L 4.40625 -26.6875 L 2.375 -26.6875 Z M 2.375 -22.34375 L 4.4375 -22.34375 L 4.4375 0 L 2.375 0 Z M 2.375 -22.34375 "/></g></g></g></svg>